<svg width="1440" height="620" viewBox="0 0 1440 620" fill="none" xmlns="http://www.w3.org/2000/svg">
<path d="M1433.96 434.97C1436.11 432.546 1436.94 429.765 1435.81 428.759C1434.68 427.753 1432.02 428.903 1429.86 431.327C1427.71 433.751 1426.88 436.532 1428.01 437.538C1429.14 438.544 1431.8 437.394 1433.96 434.97Z" fill="#FFD524"/>
<path d="M851.065 39.8965C853.011 39.8965 854.589 38.3187 854.589 36.3724C854.589 34.4261 853.011 32.8484 851.065 32.8484C849.118 32.8484 847.541 34.4261 847.541 36.3724C847.541 38.3187 849.118 39.8965 851.065 39.8965Z" fill="#57E5D4"/>
<path d="M1388.29 279.925C1390.24 279.925 1391.81 278.347 1391.81 276.401C1391.81 274.455 1390.24 272.877 1388.29 272.877C1386.34 272.877 1384.77 274.455 1384.77 276.401C1384.77 278.347 1386.34 279.925 1388.29 279.925Z" fill="#57E5D4"/>
<path d="M1435.67 553.628C1438.26 553.628 1440.37 551.525 1440.37 548.929C1440.37 546.334 1438.26 544.231 1435.67 544.231C1433.07 544.231 1430.97 546.334 1430.97 548.929C1430.97 551.525 1433.07 553.628 1435.67 553.628Z" fill="#57E5D4"/>
<path d="M1436.06 331.22C1437.14 331.22 1438.02 330.343 1438.02 329.262C1438.02 328.181 1437.14 327.304 1436.06 327.304C1434.98 327.304 1434.1 328.181 1434.1 329.262C1434.1 330.343 1434.98 331.22 1436.06 331.22Z" fill="#57E5D4"/>
<path d="M755.915 601.399C757.861 601.399 759.439 599.821 759.439 597.875C759.439 595.929 757.861 594.351 755.915 594.351C753.968 594.351 752.391 595.929 752.391 597.875C752.391 599.821 753.968 601.399 755.915 601.399Z" fill="#57E5D4"/>
<path d="M1287.66 22.2761C1290.9 22.2761 1293.53 19.6465 1293.53 16.4027C1293.53 13.1589 1290.9 10.5292 1287.66 10.5292C1284.41 10.5292 1281.78 13.1589 1281.78 16.4027C1281.78 19.6465 1284.41 22.2761 1287.66 22.2761Z" fill="#57E5D4"/>
<path d="M1364.4 75.9204C1365.27 75.9204 1365.97 75.2191 1365.97 74.3541C1365.97 73.4891 1365.27 72.7879 1364.4 72.7879C1363.54 72.7879 1362.84 73.4891 1362.84 74.3541C1362.84 75.2191 1363.54 75.9204 1364.4 75.9204Z" fill="#57E5D4"/>
<path d="M1187.81 127.607C1189.32 127.607 1190.55 126.38 1190.55 124.866C1190.55 123.352 1189.32 122.125 1187.81 122.125C1186.3 122.125 1185.07 123.352 1185.07 124.866C1185.07 126.38 1186.3 127.607 1187.81 127.607Z" fill="#57E5D4"/>
<path d="M914.476 176.006C915.99 176.006 917.217 174.779 917.217 173.265C917.217 171.752 915.99 170.525 914.476 170.525C912.962 170.525 911.735 171.752 911.735 173.265C911.735 174.779 912.962 176.006 914.476 176.006Z" fill="#57E5D4"/>
<path d="M1157.66 481.58C1159.61 481.58 1161.18 480.003 1161.18 478.056C1161.18 476.11 1159.61 474.532 1157.66 474.532C1155.71 474.532 1154.14 476.11 1154.14 478.056C1154.14 480.003 1155.71 481.58 1157.66 481.58Z" fill="#57E5D4"/>
<path d="M755.132 176.944C757.078 176.944 758.656 175.366 758.656 173.42C758.656 171.473 757.078 169.896 755.132 169.896C753.185 169.896 751.608 171.473 751.608 173.42C751.608 175.366 753.185 176.944 755.132 176.944Z" fill="#57E5D4"/>
<path d="M737.164 382.763C740.624 382.763 743.429 379.958 743.429 376.498C743.429 373.038 740.624 370.233 737.164 370.233C733.704 370.233 730.899 373.038 730.899 376.498C730.899 379.958 733.704 382.763 737.164 382.763Z" fill="#57E5D4"/>
<path d="M846.698 99.5722C848.743 97.3067 849.544 94.6963 848.487 93.7418C847.43 92.7872 844.915 93.85 842.869 96.1155C840.824 98.381 840.023 100.991 841.08 101.946C842.137 102.9 844.652 101.838 846.698 99.5722Z" fill="#FFD524"/>
<path d="M1216.58 218.672C1214.54 220.938 1212.02 222.001 1210.96 221.046C1209.91 220.091 1210.71 217.481 1212.75 215.216C1214.8 212.95 1217.31 211.887 1218.37 212.842C1219.43 213.796 1218.63 216.407 1216.58 218.672Z" fill="#FFD524"/>
<path d="M922.744 295.706C920.698 297.971 918.183 299.034 917.126 298.079C916.068 297.125 916.869 294.514 918.915 292.249C920.96 289.983 923.476 288.921 924.533 289.875C925.59 290.83 924.789 293.44 922.744 295.706Z" fill="#FFD524"/>
<path d="M1423.56 60.4536C1425.18 63.2627 1425.43 66.1536 1424.12 66.9105C1422.81 67.6674 1420.43 66.0036 1418.81 63.1945C1417.19 60.3855 1416.93 57.4946 1418.24 56.7377C1419.56 55.9808 1421.93 57.6445 1423.56 60.4536Z" fill="#FFD524"/>
<path d="M743.292 269.867C744.603 269.11 744.351 266.22 742.729 263.411C741.107 260.601 738.729 258.938 737.418 259.695C736.108 260.451 736.36 263.342 737.982 266.151C739.603 268.961 741.981 270.624 743.292 269.867Z" fill="#FFD524"/>
<path d="M1028.34 148.877C1029.65 148.121 1029.4 145.23 1027.78 142.421C1026.16 139.611 1023.78 137.948 1022.47 138.705C1021.16 139.462 1021.41 142.352 1023.03 145.162C1024.66 147.971 1027.03 149.634 1028.34 148.877Z" fill="#FFD524"/>
<path d="M738.698 511.409C739.705 513.154 739.862 514.949 739.048 515.419C738.234 515.889 736.758 514.856 735.75 513.111C734.743 511.367 734.587 509.572 735.401 509.102C736.215 508.632 737.691 509.665 738.698 511.409Z" fill="#FFD524"/>
<path d="M773.24 42.8821C775.396 40.458 776.226 37.6774 775.095 36.6715C773.964 35.6656 771.299 36.8153 769.144 39.2394C766.988 41.6635 766.158 44.4441 767.289 45.45C768.42 46.4559 771.085 45.3062 773.24 42.8821Z" fill="#FFD524"/>
<path d="M1355.69 135.013C1358.47 131.88 1359.55 128.286 1358.08 126.986C1356.62 125.686 1353.18 127.172 1350.39 130.305C1347.61 133.438 1346.53 137.032 1348 138.332C1349.46 139.632 1352.9 138.146 1355.69 135.013Z" fill="#FFD524"/>
<path d="M891.902 604.363C894.058 601.938 894.888 599.158 893.757 598.152C892.626 597.146 889.961 598.296 887.806 600.72C885.65 603.144 884.82 605.925 885.951 606.93C887.083 607.936 889.747 606.787 891.902 604.363Z" fill="#FFD524"/>
<path d="M703.059 566.97C705.214 564.546 706.044 561.765 704.913 560.759C703.782 559.753 701.118 560.903 698.962 563.327C696.806 565.751 695.976 568.532 697.107 569.538C698.239 570.544 700.903 569.394 703.059 566.97Z" fill="#FFD524"/>
<path d="M35.588 7.04815C37.5343 7.04815 39.1121 5.47037 39.1121 3.52407C39.1121 1.57778 37.5343 0 35.588 0C33.6417 0 32.064 1.57778 32.064 3.52407C32.064 5.47037 33.6417 7.04815 35.588 7.04815Z" fill="#57E5D4"/>
<path d="M120.166 171.897C122.112 171.897 123.69 170.319 123.69 168.372C123.69 166.426 122.112 164.848 120.166 164.848C118.22 164.848 116.642 166.426 116.642 168.372C116.642 170.319 118.22 171.897 120.166 171.897Z" fill="#57E5D4"/>
<path d="M625.283 10.5722C627.229 10.5722 628.807 8.99445 628.807 7.04815C628.807 5.10186 627.229 3.52408 625.283 3.52408C623.337 3.52408 621.759 5.10186 621.759 7.04815C621.759 8.99445 623.337 10.5722 625.283 10.5722Z" fill="#57E5D4"/>
<path d="M657.391 411.925C659.338 411.925 660.915 410.347 660.915 408.401C660.915 406.455 659.338 404.877 657.391 404.877C655.445 404.877 653.867 406.455 653.867 408.401C653.867 410.347 655.445 411.925 657.391 411.925Z" fill="#57E5D4"/>
<path d="M705.162 463.22C706.243 463.22 707.12 462.343 707.12 461.262C707.12 460.181 706.243 459.304 705.162 459.304C704.081 459.304 703.204 460.181 703.204 461.262C703.204 462.343 704.081 463.22 705.162 463.22Z" fill="#57E5D4"/>
<path d="M556.759 154.276C560.003 154.276 562.633 151.647 562.633 148.403C562.633 145.159 560.003 142.529 556.759 142.529C553.516 142.529 550.886 145.159 550.886 148.403C550.886 151.647 553.516 154.276 556.759 154.276Z" fill="#57E5D4"/>
<path d="M633.506 207.92C634.371 207.92 635.072 207.219 635.072 206.354C635.072 205.489 634.371 204.788 633.506 204.788C632.641 204.788 631.94 205.489 631.94 206.354C631.94 207.219 632.641 207.92 633.506 207.92Z" fill="#57E5D4"/>
<path d="M456.911 259.607C458.425 259.607 459.652 258.38 459.652 256.866C459.652 255.352 458.425 254.125 456.911 254.125C455.397 254.125 454.17 255.352 454.17 256.866C454.17 258.38 455.397 259.607 456.911 259.607Z" fill="#57E5D4"/>
<path d="M183.577 308.006C185.091 308.006 186.318 306.779 186.318 305.265C186.318 303.752 185.091 302.525 183.577 302.525C182.063 302.525 180.836 303.752 180.836 305.265C180.836 306.779 182.063 308.006 183.577 308.006Z" fill="#57E5D4"/>
<path d="M426.76 613.58C428.707 613.58 430.284 612.003 430.284 610.056C430.284 608.11 428.707 606.532 426.76 606.532C424.814 606.532 423.236 608.11 423.236 610.056C423.236 612.003 424.814 613.58 426.76 613.58Z" fill="#57E5D4"/>
<path d="M24.2327 308.944C26.179 308.944 27.7568 307.366 27.7568 305.42C27.7568 303.473 26.179 301.896 24.2327 301.896C22.2864 301.896 20.7086 303.473 20.7086 305.42C20.7086 307.366 22.2864 308.944 24.2327 308.944Z" fill="#57E5D4"/>
<path d="M6.26502 514.763C9.7251 514.763 12.53 511.958 12.53 508.498C12.53 505.038 9.7251 502.233 6.26502 502.233C2.80495 502.233 0 505.038 0 508.498C0 511.958 2.80495 514.763 6.26502 514.763Z" fill="#57E5D4"/>
<path d="M159.938 21.4953C162.767 26.3945 163.207 31.4363 160.92 32.7567C158.634 34.0766 154.487 31.1751 151.659 26.2759C148.83 21.3766 148.39 16.3349 150.677 15.0145C152.963 13.6942 157.11 16.596 159.938 21.4953Z" fill="#FFD524"/>
<path d="M115.799 231.572C117.844 229.307 118.645 226.696 117.588 225.742C116.531 224.787 114.016 225.85 111.97 228.116C109.925 230.381 109.124 232.991 110.181 233.946C111.238 234.9 113.753 233.838 115.799 231.572Z" fill="#FFD524"/>
<path d="M485.683 350.672C483.637 352.938 481.122 354.001 480.065 353.046C479.007 352.091 479.809 349.481 481.854 347.216C483.9 344.95 486.415 343.887 487.472 344.842C488.529 345.796 487.728 348.407 485.683 350.672Z" fill="#FFD524"/>
<path d="M191.845 427.706C189.799 429.971 187.284 431.034 186.227 430.079C185.169 429.125 185.97 426.514 188.016 424.249C190.062 421.983 192.577 420.921 193.634 421.875C194.691 422.83 193.89 425.44 191.845 427.706Z" fill="#FFD524"/>
<path d="M692.656 192.454C694.278 195.263 694.53 198.154 693.22 198.91C691.909 199.667 689.531 198.004 687.909 195.195C686.287 192.385 686.035 189.495 687.346 188.738C688.657 187.981 691.035 189.645 692.656 192.454Z" fill="#FFD524"/>
<path d="M12.393 401.867C13.7039 401.111 13.4518 398.22 11.8299 395.411C10.208 392.601 7.83047 390.938 6.51953 391.695C5.2086 392.451 5.46069 395.342 7.0826 398.151C8.70451 400.961 11.0821 402.624 12.393 401.867Z" fill="#FFD524"/>
<path d="M297.445 280.877C298.756 280.121 298.503 277.23 296.882 274.421C295.26 271.611 292.882 269.948 291.571 270.705C290.26 271.462 290.512 274.352 292.134 277.162C293.756 279.971 296.134 281.634 297.445 280.877Z" fill="#FFD524"/>
<path d="M42.3413 174.882C44.4968 172.458 45.3272 169.677 44.1959 168.672C43.0647 167.666 40.4002 168.815 38.2447 171.239C36.0892 173.664 35.2589 176.444 36.3901 177.45C37.5214 178.456 40.1858 177.306 42.3413 174.882Z" fill="#FFD524"/>
<path d="M624.788 267.013C627.574 263.88 628.648 260.286 627.186 258.986C625.723 257.686 622.28 259.172 619.494 262.305C616.708 265.438 615.635 269.032 617.097 270.332C618.559 271.632 622.002 270.146 624.788 267.013Z" fill="#FFD524"/>
</svg>
