<svg width="147" height="107" viewBox="0 0 147 107" fill="none" xmlns="http://www.w3.org/2000/svg">
<path d="M39.949 52.8713C39.949 52.8713 61.7787 5.02876 82.8766 0.641728C103.975 -3.74575 102.716 15.5398 82.6893 22.8576C62.6623 30.1759 39.949 52.8713 39.949 52.8713Z" fill="#F4458D"/>
<path d="M17.3687 47.8814C17.3687 47.8814 20.4139 16.3086 10.7218 7.6476C1.02966 -1.01293 -4.13599 9.43729 4.11243 19.3046C12.3604 29.1729 17.3687 47.8814 17.3687 47.8814Z" fill="#57E5D4"/>
<path d="M75.0107 86.9485C75.0107 86.9485 98.091 90.1506 102.629 98.5514C107.167 106.953 98.8196 108.864 93.173 101.289C87.5269 93.7138 75.0107 86.9485 75.0107 86.9485Z" fill="#363C54"/>
<path d="M52.6907 67.6875C52.6907 67.6875 104.016 39.5408 131.638 56.9781C146.654 66.4575 151.806 77.6501 141.216 81.7108C134.246 84.3837 129.338 74.0381 109.062 66.2934C82.8899 56.2978 52.6907 67.6875 52.6907 67.6875Z" fill="#FFD524"/>
</svg>
