<svg width="421" height="219" viewBox="0 0 421 219" fill="none" xmlns="http://www.w3.org/2000/svg">
<path d="M219.511 33.7478H216.8V38.3778H219.511V33.7478Z" fill="#EEF6FF"/>
<path d="M231.102 45.2477H228.392V49.8779H231.102V45.2477Z" fill="#EEF6FF"/>
<path d="M218.597 37.0561C218.597 37.0561 218.183 43.4976 215.953 44.4535C215.785 44.5249 215.607 44.5663 215.419 44.5708C213.714 44.6146 211.9 42.8682 211.05 41.9021C210.868 41.6963 210.731 41.5275 210.648 41.4174C209.56 39.9859 209.051 38.4361 213.024 35.5664C215.31 33.9144 215.074 25.4818 218.598 22.6868C220.935 20.8312 218.597 37.0561 218.597 37.0561Z" fill="#FFD524"/>
<path d="M204.911 24.1849C204.911 24.1849 204.753 20.7662 203.851 20.114C202.95 19.4616 202.128 18.2064 201.846 18.4901C201.564 18.7738 203.268 20.6848 202.475 20.8316C202.099 20.9016 199.629 16.6638 198.888 16.8567C198.147 17.0494 198.315 20.1274 199.033 21.368C199.752 22.609 201.946 24.9566 201.946 24.9566L204.911 24.1849Z" fill="#ECAF94"/>
<path d="M213.726 121.734H226.584C227.506 121.11 226.336 115.002 226.336 115.002C226.336 115.002 222.826 113.67 222.22 116.378C221.612 119.084 217.75 119.944 215.706 120.274C214.308 120.502 213.866 121.27 213.726 121.734Z" fill="#363C54"/>
<path d="M233.334 58.4224C233.334 58.4224 232.928 65.9233 232.421 74.615C232.056 80.8474 231.641 87.6925 231.284 92.8189C231.237 93.4994 231.189 94.1498 231.145 94.7643C231.132 94.9547 231.118 95.1436 231.104 95.3328C230.183 106.828 227.105 116.899 227.105 116.899C223.489 117.66 221.856 116.267 221.856 116.267C221.856 116.267 219.365 87.0741 218.443 75.3002C217.764 66.633 217.186 54.014 217.186 54.014L233.334 58.4224Z" fill="#F4458D"/>
<path d="M232.421 74.6147C232.056 80.8471 231.641 87.6922 231.284 92.8187C228.921 87.2439 224.092 65.5154 224.092 65.5154L232.421 74.6147Z" fill="#E5287E"/>
<path d="M232.796 121.734H245.654C246.575 121.11 245.405 115.002 245.405 115.002C245.405 115.002 241.896 113.67 241.29 116.378C240.682 119.084 236.82 119.944 234.776 120.274C233.377 120.502 232.936 121.27 232.796 121.734Z" fill="#363C54"/>
<path d="M220.678 56.93C220.678 56.93 229.86 79.7862 232.795 88.4502C234.886 94.6215 240.783 116.271 240.783 116.271C240.783 116.271 243.348 117.052 245.502 115.543C245.502 115.543 247.696 93.4244 243.265 87.1875C240.914 83.8787 242.68 52.7907 233.148 52.5246C223.615 52.2586 220.678 56.93 220.678 56.93Z" fill="#F4458D"/>
<path d="M239.542 43.1667C239.527 45.477 239.503 47.6757 239.48 49.5784C239.465 50.8661 239.45 52.0183 239.438 52.9777C239.42 54.4392 239.408 55.4534 239.414 55.8177C239.439 57.7845 238.183 58.2292 236.886 58.528C236.886 58.528 235.689 58.7861 234.178 59.0422C232.698 59.2905 230.913 59.5352 229.653 59.526C223.205 59.4742 217.809 57.5765 217.809 57.5765C216.596 57.5765 216.044 55.7004 215.845 53.0811C215.71 51.3072 216.257 33.6233 216.326 29.2075C216.373 26.0414 218.111 23.1152 218.597 22.6867C223.1 18.7061 236.384 19.2068 238.775 21.9527C239.367 22.6314 239.538 29.1785 239.559 36.3506C239.565 38.6163 239.557 40.9427 239.542 43.1667Z" fill="#FFD524"/>
<path d="M231.504 20.3775C229.807 22.2152 224.111 21.9431 224.28 20.3388C224.303 20.1414 224.34 18.9668 224.359 18.7848C224.373 18.6385 224.387 18.4954 224.399 18.361C224.438 17.9653 224.469 17.6161 224.495 17.3136C224.571 16.4341 224.595 15.9572 224.595 15.9572C224.595 15.9572 224.598 15.9572 224.601 15.9572C224.764 15.9116 228.427 14.8714 230.249 14.4404C230.86 14.2956 231.266 14.2197 231.259 14.2728C230.7 18.3652 232.059 19.7744 231.504 20.3775Z" fill="#ECAF94"/>
<path d="M230.442 15.6478C230.442 15.6478 228.912 17.2018 224.495 17.3136C224.571 16.4341 224.595 15.9572 224.595 15.9572C224.595 15.9572 224.598 15.9572 224.601 15.9572C224.764 15.9116 228.427 14.8714 230.248 14.4404C230.569 14.5721 230.144 15.4273 230.442 15.6478Z" fill="#E59D80"/>
<path d="M223.475 15.7395C223.475 15.7395 224.593 16.1407 226.02 16.3326C228.105 16.6141 230.846 16.4482 231.708 13.9254C233.159 9.67869 235.012 7.13259 230.742 5.39856C228.457 4.47018 226.995 4.42107 226.001 4.77541C225.139 5.08115 224.63 5.69191 224.245 6.29596C223.416 7.59604 221.748 14.9961 223.475 15.7395Z" fill="#ECAF94"/>
<path d="M224.566 3.00982C223.041 4.01136 223.539 6.35885 225.336 6.67501C226.414 6.8642 227.317 6.90215 227.839 7.13449C228.901 7.60613 229.813 8.10652 229.563 9.75376C229.478 10.3142 229.205 10.9963 230.647 10.6576C230.883 10.6023 231.053 10.6189 231.17 10.6888C231.768 11.0439 231.004 12.7638 230.773 13.1363C230.773 13.1363 230.441 14.3687 231.178 14.9682C231.267 15.0399 232.714 15.6722 236.199 10.3377C236.747 9.50058 237.27 7.61406 236.424 5.79795C235.579 3.9816 233.221 1.68469 228.781 1.68469C227.625 1.68469 225.887 2.14244 224.566 3.00982Z" fill="#461E0F"/>
<path d="M238.775 21.953C238.775 21.953 245.31 31.7171 246.045 43.046C246.045 43.046 246.54 46.1292 242.41 45.7719C238.28 45.4143 235.336 38.6361 235.2 32.892C235.063 27.1476 238.775 21.953 238.775 21.953Z" fill="#FFD524"/>
<path d="M239.542 43.1668C239.527 45.4771 239.503 47.6758 239.48 49.5784C239.465 50.8661 239.45 52.0184 239.439 52.9778C237.446 52.617 235.938 48.9833 236.557 46.5627C237.189 44.0929 233.398 42.1972 231.79 40.5889C230.181 38.9806 230.635 38.1259 230.635 38.1259L239.542 43.1668Z" fill="#F2B111"/>
<path d="M238.32 36.7805C238.32 36.7805 236.902 31.2831 236.327 31.2831C235.753 31.2831 237.093 33.6958 236.557 34.3851C236.021 35.0745 233.273 33.6127 233.02 34.5352C232.766 35.4573 238.633 37.938 238.32 36.7805Z" fill="#F2B111"/>
<path d="M230.144 33.5016C230.144 33.5016 227.323 32.715 227.133 31.7269C226.944 30.739 226.933 29.3362 226.003 28.7887C225.073 28.2415 222.88 27.5573 222.484 28.0354C222.088 28.5135 222.911 29.7493 223.728 30.5731C224.545 31.3971 224.178 33.1641 225.023 33.8103C225.869 34.456 228.858 35.7285 228.858 35.7285L230.144 33.5016Z" fill="#ECAF94"/>
<path d="M227.133 31.7268C227.133 31.7268 227.33 30.2812 227.454 29.7991C227.577 29.3173 227.213 29.5204 227.054 29.7019C226.894 29.8837 226.556 30.3523 226.654 30.8706C226.752 31.3886 227.133 31.7268 227.133 31.7268Z" fill="#ECAF94"/>
<path d="M227.137 32.1855C227.137 32.1855 240.004 37.1806 241.842 38.5593C243.68 39.9377 243.773 42.5533 243.144 43.7336C242.355 45.2115 239.497 44.8551 235.2 41.6802C231.798 39.1673 226.007 34.3468 226.007 34.3468L227.137 32.1855Z" fill="#ECAF94"/>
<path d="M215.953 44.4524V44.4534C215.785 44.5249 215.607 44.5663 215.419 44.5707C213.714 44.6146 211.9 42.8682 211.05 41.9021C212.036 41.3415 213.679 41.0233 214.385 41.4702C215.534 42.1974 215.419 41.1255 215.953 41.1255C216.488 41.1252 215.953 44.4524 215.953 44.4524Z" fill="#F2B111"/>
<path d="M201.946 24.9566C201.946 24.9566 209.949 43.1043 212.827 43.3435C215.704 43.5828 214.596 38.3904 213.983 36.6715C213.294 34.7384 210.133 32.0271 208.132 29.5003C206.48 27.4157 204.911 24.1849 204.911 24.1849L201.946 24.9566Z" fill="#ECAF94"/>
<path d="M164.66 32.1003C164.224 31.2592 174.174 28.2307 174.331 36.5307C174.331 36.5307 192.969 36.0724 184.07 25.6841C180.989 22.0876 181.306 19.114 181.399 16.3463C181.492 13.5777 179.48 5.53246 172.581 6.34256C172.581 6.34256 170.774 5.60757 168.52 6.77723C163.392 9.43716 151.906 35.1611 164.66 32.1003Z" fill="#461E0F"/>
<path d="M195.131 39.7186C195.131 39.7186 196.344 37.8717 197.322 37.8355C198.3 37.7993 200.11 37.2925 199.965 37.6548C199.82 38.0168 198.698 38.053 198.589 38.2702C198.481 38.4877 200.255 38.8138 200.762 38.8497C201.269 38.8859 202.464 38.8497 202.428 39.1031C202.392 39.3568 200.274 40.4069 198.78 40.2621C197.285 40.1171 195.438 40.6966 195.438 40.6966L195.131 39.7186Z" fill="#ECAF94"/>
<path d="M177.585 40.3159C177.585 40.3159 178.245 41.6217 179.441 43.1221C180.882 44.9278 183.105 47.0137 185.896 47.4253C187.229 47.622 188.533 47.3351 189.731 46.8029C189.734 46.8019 189.736 46.8019 189.736 46.8019C193.125 45.2973 195.674 41.8369 195.674 41.8369C196.271 40.2073 195.293 39.1024 195.293 39.1024C195.293 39.1024 188.449 40.6417 187.797 40.3159C187.145 39.9901 183.138 31.099 182.416 29.6184C180.881 26.471 178.447 25.5681 178.447 25.5681L177.585 40.3159Z" fill="#F4458D"/>
<path d="M179.441 43.1221C180.883 44.9278 183.105 47.0137 185.896 47.4253C187.229 47.6219 188.533 47.335 189.731 46.8029C189.599 46.8202 186.213 47.2386 184.864 44.8246C183.488 42.3618 181.999 38.4507 179.955 39.7545C179.073 40.3171 179.112 41.7151 179.441 43.1221Z" fill="#E5287E"/>
<path d="M152.051 114.197C152.051 114.197 149.962 116.103 150.37 117.457C150.777 118.811 152.662 119.714 152.917 121.369C153.171 123.025 154.19 123.927 155.107 123.927C156.024 123.927 159.478 123.927 159.478 123.927C159.478 123.927 160.153 122.762 158.523 122.411C156.893 122.06 156.279 120.115 156.38 118.309C156.482 116.504 156.228 114.096 156.228 114.096L152.764 113.294L152.051 114.197Z" fill="#461E0F"/>
<path d="M169.727 115.006C169.727 115.006 168.976 123.08 169.893 123.532L181.627 123.507C181.627 123.507 181.627 122.153 179.742 121.852C177.857 121.551 174.546 120.448 173.986 117.991C173.426 115.533 169.727 115.006 169.727 115.006Z" fill="#461E0F"/>
<path d="M160.701 34.8702C160.701 34.8702 162.329 32.932 162.504 35.8903C162.621 37.8512 162.801 44.8813 163.082 45.5309C163.788 47.1606 164.585 47.4257 164.585 47.4257L170.746 48.9358L172.912 49.4659L179.743 47.4257C179.743 47.4257 182.854 38.7409 181.605 33.8522C180.356 28.9636 178.447 25.5684 178.447 25.5684C178.447 25.5684 173.816 23.7407 165.614 25.1058L160.701 34.8702Z" fill="#F4458D"/>
<path d="M162.504 41.0941C162.621 43.0547 162.801 44.881 163.082 45.5307C163.788 47.1603 164.585 47.4254 164.585 47.4254L170.746 48.9355L173.421 48.1492C173.421 48.1492 164.489 46.7956 165.479 39.1101L162.504 41.0941Z" fill="#E5287E"/>
<path d="M179.309 48.7438C179.309 48.7438 182.692 59.2739 182.909 62.8587C183.126 66.4438 176.442 113.789 176.173 115.441C175.92 116.998 173.986 117.99 173.986 117.99C173.986 117.99 173.097 118.515 171.828 118.157C170.066 117.66 169.51 117.064 169.51 117.064C169.51 117.064 166.877 83.2981 168.506 71.2363C170.136 59.1745 170.155 48.7438 170.155 48.7438H179.309Z" fill="#F2B111"/>
<path d="M164.976 48.4299C164.976 48.4299 159.815 55.3536 159.334 60.0342C158.853 64.7148 158.579 81.1555 157.555 85.7185C156.53 90.2814 152.764 99.0623 152.764 113.294C152.764 113.294 153.155 114.11 154.364 114.544C154.751 114.683 155.268 114.818 155.771 114.933C156.768 115.162 157.791 114.675 158.245 113.759C160.791 108.633 168.901 92.1007 169.317 88.6688C169.611 86.2403 172.171 70.1666 177.757 60.735C179.098 58.4706 176.934 49.4659 176.934 49.4659L164.976 48.4299Z" fill="#FFD524"/>
<path d="M179.849 47.1178C179.849 47.1178 178.491 48.1922 175.793 48.2465C172.571 48.3113 164.585 47.425 164.585 47.425C164.585 47.425 164.23 48.4164 164.245 49.4631C164.245 49.4631 173.998 51.9229 179.649 49.8224C179.649 49.8224 180.377 48.4511 179.849 47.1178Z" fill="#363C54"/>
<path d="M175.096 49.3594C175.096 48.4417 175.755 47.6951 176.566 47.6951C177.377 47.6951 178.037 48.4415 178.037 49.3594C178.037 50.2771 177.377 51.0238 176.566 51.0238C175.755 51.0238 175.096 50.2771 175.096 49.3594ZM175.583 49.3594C175.583 50.0086 176.024 50.5365 176.566 50.5365C177.108 50.5365 177.549 50.0086 177.549 49.3594C177.549 48.7105 177.108 48.1826 176.566 48.1826C176.024 48.1826 175.583 48.7105 175.583 49.3594Z" fill="#FFF5DE"/>
<path d="M168.941 24.6576C169.407 23.5277 169.679 21.807 169.671 19.6772L169.98 19.7382L175.182 20.7683C175.182 20.7683 175.063 22.4051 175.06 23.9467C175.06 23.9596 175.059 23.9725 175.059 23.9851C175.053 25.3242 175.964 26.6679 173.816 27.199C173.152 27.3629 167.963 27.0299 168.941 24.6576Z" fill="#ECAF94"/>
<path d="M175.181 20.7681C175.181 20.7681 175.063 22.4049 175.059 23.9465C172.149 23.8647 170.611 21.2097 169.98 19.738L175.181 20.7681Z" fill="#E59D80"/>
<path d="M176.153 22.2278C176.153 22.2278 169.267 22.3416 169.262 18.0523C169.258 13.7627 168.366 10.889 172.762 10.6349C177.158 10.3812 178.014 12.0168 178.364 13.448C178.714 14.8798 177.944 22.0877 176.153 22.2278Z" fill="#ECAF94"/>
<path d="M175.898 10.5302C175.898 10.5302 174.013 15.5622 171.12 16.3063C168.226 17.0504 166.971 16.275 166.971 16.275C166.971 16.275 169.191 14.512 169.651 11.4345C169.651 11.4345 174.476 8.13506 175.898 10.5302Z" fill="#461E0F"/>
<path d="M175.431 10.9385C175.431 10.9385 176.829 11.4613 177.405 12.4809C177.967 13.478 178.447 14.7986 178.335 16.4186C178.335 16.4186 179.756 12.9984 178.16 11.0638C176.467 9.01185 175.431 10.9385 175.431 10.9385Z" fill="#461E0F"/>
<path d="M165.615 25.1055C165.615 25.1055 162.478 25.7955 161.099 27.7485C159.72 29.7015 158.062 45.5554 160.701 46.4171C163.339 47.2786 166.326 46.0149 166.441 39.7538C166.556 33.4927 165.615 25.1055 165.615 25.1055Z" fill="#F4458D"/>
<path d="M172.804 33.7354C172.804 33.7354 170.988 35.3739 168.768 36.738C166.209 38.3101 163.158 39.6942 162.472 40.6928C161.19 42.5575 160.837 45.4718 162.258 45.853C163.68 46.2346 165.542 45.7634 168.435 42.5627C171.328 39.3617 173.834 35.7387 173.834 35.7387L172.804 33.7354Z" fill="#ECAF94"/>
<path d="M172.804 33.7354C172.804 33.7354 172.522 31.034 172.738 30.4121C172.955 29.79 176.243 28.1346 176.295 28.6895C176.347 29.2447 175.226 30.0489 175.367 30.9601C175.526 31.983 175.715 33.2256 175.178 33.7488C174.641 34.2722 173.834 35.7384 173.834 35.7384L172.804 33.7354Z" fill="#ECAF94"/>
<path d="M172.804 33.7354C172.804 33.7354 172.385 32.1139 172.041 31.6093C171.697 31.1045 172.641 31.3678 172.937 31.9778C173.232 32.588 172.804 33.7354 172.804 33.7354Z" fill="#ECAF94"/>
<path d="M59.2458 127.281C58.218 126.653 58.803 121.973 58.803 121.973C58.803 121.973 63.5927 118.141 64.2513 121.074C64.9099 124.008 68.8014 125.326 71.017 125.685C72.5462 125.933 73.0198 126.78 73.1664 127.281H59.2458Z" fill="#1D3356"/>
<path d="M38.4277 127.281C37.3996 126.653 37.9846 121.973 37.9846 121.973C37.9846 121.973 42.7743 118.141 43.4331 121.074C44.0917 124.008 47.9835 125.326 50.1989 125.685C51.7281 125.933 52.2017 126.78 52.3482 127.281H38.4277Z" fill="#1D3356"/>
<path d="M41.7671 60.2413C41.7671 64.8528 43.5574 71.349 43.5574 71.349C44.922 77.9587 56.7611 123.014 57.9017 123.444C59.8034 124.161 64.6519 122.656 64.5767 121.98C60.8855 88.8618 59.5859 61.3783 59.3717 60.3137C58.7652 59.8446 44.058 55.103 41.7671 60.2413Z" fill="#E86A13"/>
<path d="M55.3648 3.65138C55.3648 3.65138 52.1299 0.12259 51.1301 0.00505417C50.1303 -0.11273 46.013 1.85957 45.7777 2.63794C45.5424 3.41605 50.3066 1.85957 50.5711 2.63794C50.8357 3.41605 51.1301 3.94546 52.4827 4.00423C53.8356 4.063 55.0117 4.82774 55.0117 4.82774L55.3648 3.65138Z" fill="#ECAF94"/>
<path d="M49.0489 18.8293L49.0454 19.6603C49.0454 19.6603 49.2311 22.2597 46.6049 22.6391C43.9787 23.0199 41.9893 21.6256 42.0604 19.6196C42.297 18.0666 42.5566 17.0001 42.5742 15.7151C42.5807 15.2378 42.5539 14.7307 42.481 14.1584L47.5698 14.0347L49.0685 14.333L49.0489 18.8293Z" fill="#ECAF94"/>
<path d="M49.0684 14.3335L49.0538 17.6795C43.2916 17.2486 42.5536 14.7312 42.4807 14.1589L47.5695 14.0352L49.0684 14.3335Z" fill="#E59D80"/>
<path d="M50.1971 16.5184C50.1971 16.5184 42.2538 18.123 41.3306 13.1607C40.4074 8.19866 38.7605 5.06388 43.7929 3.82975C48.8256 2.59537 50.1659 4.30484 50.8771 5.88612C51.5882 7.46765 52.2396 15.9731 50.1971 16.5184Z" fill="#ECAF94"/>
<path d="M54.9558 56.0873C46.3104 95.46 45.2015 122.907 45.2015 122.907C45.2015 122.907 42.609 123.665 37.4417 123.021C37.4417 123.021 36.2586 105.579 35.6558 92.5125C35.4793 88.6821 33.6746 66.0654 36.1619 55.1014C37.1642 50.6829 55.9372 51.6177 54.9558 56.0873Z" fill="#F77721"/>
<path d="M59.6114 60.5112C59.6114 60.5112 57.0445 62.848 50.2628 62.8053C45.9998 62.7786 40.2356 61.7862 37.6575 61.2521C34.1884 60.5332 34.7407 59.278 35.0219 56.7096C35.3826 53.4181 35.5275 47.4506 33.6752 37.3348C33.4024 35.8418 33.0857 34.2593 32.7192 32.5818C31.1608 25.4419 40.1374 21.3055 41.2951 19.6206C47.8881 25.6677 49.729 20.058 49.729 20.058L49.7305 20.0565C49.7957 20.0565 52.8553 20.5001 55.6491 18.8293C58.3197 17.2327 58.0931 27.4461 58.0973 30.7436C58.1015 34.285 58.8372 43.0179 58.9394 46.8663C59.0718 51.8601 59.6114 60.5112 59.6114 60.5112Z" fill="#FFD524"/>
<path d="M70.5405 13.1358C70.4849 13.4227 70.4068 13.7225 70.3089 14.0352C70.3089 14.0367 70.3074 14.0367 70.3074 14.0379C68.3542 20.2346 60.2095 27.3274 59.1278 29.6404C58.4923 30.9993 58.23 35.0034 58.2508 34.8784L52.2815 21.4092C52.2815 21.4092 60.875 14.9517 61.2358 14.0352C61.7826 12.6473 53.3758 5.0231 53.3758 5.0231C53.3758 5.0231 52.9567 4.36251 53.471 3.15219C53.8729 2.2062 54.5422 1.93494 54.5422 1.93494C54.5422 1.93494 71.1329 10.0858 70.5405 13.1358Z" fill="#FFD524"/>
<path d="M35.1568 49.1667C34.547 45.0002 34.52 44.0537 33.0193 33.9402C33.5844 34.0545 35.5473 33.102 36.5015 34.7247C39.273 39.4366 40.1783 43.0435 35.1568 49.1667Z" fill="#F2B111"/>
<path d="M32.9964 51.1793C32.9964 51.1793 37.1196 48.6867 38.3974 49.0027C39.6751 49.3186 42.4476 50.5237 42.2758 51.2604C42.104 51.9971 38.8834 52.5 38.323 52.4129C37.7626 52.3264 36.858 52.4281 36.4908 52.7447C36.1235 53.0616 33.2015 53.1796 32.8449 52.3244C32.4883 51.4692 32.9964 51.1793 32.9964 51.1793Z" fill="#ECAF94"/>
<path d="M41.2939 19.6199C41.2939 19.6199 34.9906 20.851 32.5373 22.8799C30.0308 24.9529 20.8367 37.2121 21.418 41.46C22.0076 45.7714 32.2315 52.4419 32.2315 52.4419C32.2315 52.4419 34.2385 53.1084 34.3095 49.9124C34.3095 49.9124 28.9152 41.9388 29.1994 41.0151C29.3779 40.4351 37.3282 34.058 37.3282 34.058L41.2939 19.6199Z" fill="#FFD524"/>
<path d="M54.9332 53.7097C54.8933 54.7849 54.4543 55.8075 53.7015 56.5777L52.5182 57.788C52.2214 58.0918 51.7285 58.0777 51.4485 57.758L49.8065 55.8829C49.3661 55.3803 49.1375 54.7266 49.1657 54.0589C49.2327 52.5718 49.352 49.7063 49.4229 46.9433C49.4811 44.7046 49.5082 42.5312 49.4499 41.213C49.2637 37.004 47.728 23.6307 47.728 23.6307H48.7395C48.7395 23.6307 51.5167 28.7078 53.1984 35.7253C53.6133 37.4526 53.9599 39.2965 54.1843 41.213C54.1843 41.213 55.1107 48.8486 54.9332 53.7097Z" fill="#363C54"/>
<path d="M46.3208 22.5861L49.131 21.9126C49.131 21.9126 49.498 21.9443 49.488 22.4021C49.4781 22.8598 48.6965 24.1973 48.3504 24.3042C48.0042 24.4113 45.656 23.512 46.3208 22.5861Z" fill="#233862"/>
<path d="M40.1352 19.7419C40.1134 19.304 42.2263 18.604 42.2263 18.604C42.2263 18.604 43.8152 22.1645 47.7274 22.2216C47.7274 22.2216 46.6125 24.3913 45.2986 24.9532C45.2986 24.9532 40.2644 22.3428 40.1352 19.7419Z" fill="#F2B111"/>
<path d="M47.7275 22.2213C47.7275 22.2213 49.042 20.1614 49.049 18.8293C49.049 18.8293 50.5677 19.2564 51.7312 20.1419C51.7312 20.1419 51.5698 22.7021 50.5675 23.9885C50.5675 23.9885 49.2756 22.83 47.7275 22.2213Z" fill="#F2B111"/>
<path d="M37.9676 10.0863C39.1772 14.1522 41.972 14.7185 41.972 14.7185C41.972 14.7185 41.7345 14.244 41.6043 13.0118C41.5874 12.8553 41.6286 12.6341 41.6958 12.4117C41.8525 11.8912 41.8369 11.3395 41.6613 10.825C41.5421 10.4753 41.544 10.1396 41.8344 9.97423C42.2996 9.70841 42.8647 10.1942 43.2171 10.5869C43.4494 10.8456 43.8132 10.9462 44.1437 10.8376C44.1457 10.8369 44.1479 10.8362 44.1499 10.8357C45.5202 10.3804 44.2724 7.26544 45.7694 7.33115C50.718 7.54737 51.1582 6.77744 51.9621 5.95196C52.5421 5.3561 52.3006 3.32056 51.4989 3.09962C50.6635 2.86926 49.4494 2.49011 48.1744 1.78663C44.4378 -0.27446 41.1607 1.78267 41.1726 1.79432C37.9138 3.08052 37.1412 7.30811 37.9676 10.0863Z" fill="#461E0F"/>
<path d="M265.904 75.0706C265.76 75.8249 264.298 76.5594 263.94 76.6633C263.612 75.7406 262.897 74.8809 262.936 74.9188C262.971 74.8457 263.013 74.7591 263.062 74.6654C263.396 74.017 264.037 72.9827 264.834 72.7427C266.017 72.3824 268.35 72.1597 268.491 72.6561C268.631 73.1496 266.067 74.22 265.904 75.0706Z" fill="#ECAF94"/>
<path d="M271.112 216.396H256.012C254.93 215.663 256.304 208.489 256.304 208.489C256.304 208.489 260.425 206.926 261.137 210.106C261.851 213.283 266.386 214.294 268.786 214.681C270.429 214.949 270.948 215.851 271.112 216.396Z" fill="#363C54"/>
<path d="M293.007 216.396H277.907C276.825 215.663 278.199 208.489 278.199 208.489C278.199 208.489 282.32 206.926 283.032 210.106C283.746 213.283 288.281 214.294 290.682 214.681C292.324 214.949 292.843 215.851 293.007 216.396Z" fill="#363C54"/>
<path d="M288.945 143.218C288.945 143.218 288.266 151.686 287.468 161.865C286.384 175.692 283.46 209.975 283.46 209.975C283.46 209.975 281.543 211.611 277.296 210.716C277.296 210.716 273.682 198.889 272.6 185.39C272.584 185.17 272.567 184.946 272.55 184.724C271.545 170.982 269.981 142.046 269.981 142.046L288.945 143.218Z" fill="#F77721"/>
<path d="M289.176 140.292C289.176 140.292 288.266 151.686 287.468 161.865L272.6 185.39C272.584 185.169 272.567 184.946 272.55 184.723C271.545 170.981 269.981 142.045 269.981 142.045L289.176 140.292Z" fill="#E86A13"/>
<path d="M285.86 138.148L261.625 209.861C261.625 209.861 257.573 211.936 255.914 209.129C255.914 209.129 256.298 178.895 260.627 171.393C263.073 167.154 264.779 155.264 264.488 151.249C263.918 143.38 266.262 136.055 266.262 136.055L285.86 138.148Z" fill="#F77721"/>
<path d="M280.026 100.723C278.38 101.59 276.773 101.644 275.38 101.348C274.106 101.08 273.012 100.518 272.233 100.02C271.433 99.5089 270.963 99.0638 270.963 99.0638C270.963 99.0638 271.019 98.9832 271.113 98.8247C271.599 97.9931 273.074 95.0023 272.417 90.1972C272.409 90.1342 272.885 90.2235 273.604 90.3934C275.743 90.9002 280.045 92.1202 280.235 92.1743C280.24 92.1743 280.243 92.1743 280.243 92.1743C280.243 92.1743 280.295 93.185 280.472 94.9966C280.487 95.1563 280.503 95.3232 280.521 95.496C280.543 95.7083 280.565 95.9339 280.591 96.1653C280.791 98.0488 280.026 100.723 280.026 100.723Z" fill="#ECAF94"/>
<path d="M280.473 94.9968C277.279 95.7291 272.512 91.0132 272.512 91.0132C272.86 90.7541 273.226 90.549 273.604 90.3936C275.744 90.9004 280.045 92.1204 280.236 92.1744C280.24 92.1744 280.243 92.1744 280.243 92.1744C280.243 92.1744 280.296 93.1849 280.473 94.9968Z" fill="#E59D80"/>
<path d="M284.811 74.5412C284.811 74.5412 283.558 72.6499 282.327 72.5386C281.096 72.4275 278.541 72.7191 278.729 73.198C279.331 74.7341 281.479 74.0515 282.024 75.024C282.49 75.8559 284.143 76.204 284.143 76.204L284.811 74.5412Z" fill="#ECAF94"/>
<path d="M281.558 91.9193C281.558 91.9193 280.245 92.3904 278.57 92.6156C276.121 92.9463 272.901 92.7514 271.89 89.7885C270.186 84.8017 268.009 81.8117 273.023 79.7752C275.707 78.6848 277.424 78.6271 278.591 79.0432C279.604 79.402 280.202 80.1196 280.654 80.8293C281.627 82.3555 283.586 91.0462 281.558 91.9193Z" fill="#ECAF94"/>
<path d="M281.092 77.7009C282.479 79.6253 280.863 82.2694 278.521 81.8873C277.605 81.738 276.858 81.6242 276.432 81.8134C275.186 82.3676 274.962 84.4589 274.939 85.1229C274.916 85.7882 274.829 86.3487 273.136 85.9509C272.858 85.8862 272.658 85.9053 272.521 85.9879C271.895 86.3593 272.54 88.0046 272.879 88.6674C272.972 88.8491 273.032 89.046 273.054 89.2489C273.108 89.7279 273.094 90.539 272.512 91.0131C272.407 91.0974 270.709 91.8399 266.615 85.5753C265.972 84.5921 265.358 82.3767 266.351 80.2437C267.344 78.111 271.751 75.7404 275.406 75.2834C279.315 74.7949 280.917 77.4586 281.092 77.7009Z" fill="#461E0F"/>
<path d="M290.393 107.436C278.403 118.635 280.509 97.3051 280.509 97.3051C280.509 97.3051 285.075 95.2779 286.514 95.2784C287.953 95.2787 289.007 91.2708 293.57 84.5973C293.571 84.5961 293.571 84.5961 293.571 84.5961L293.568 84.5948L283.977 76.3832C283.977 76.3832 284.421 73.9415 284.951 74.063C285.693 74.2323 287.107 74.6762 288.8 75.3135C293.186 76.9637 299.438 79.9068 300.703 82.7291C300.703 82.7291 300.942 97.5845 290.393 107.436Z" fill="#FFD524"/>
<path d="M280.186 75.907L280.167 75.8832C280.179 75.8947 280.184 75.9016 280.186 75.907Z" fill="#7F2722"/>
<path d="M289.131 140.854C289.131 140.854 281.987 143.282 274.415 143.34C272.934 143.352 270.84 143.065 269.102 142.773C267.325 142.473 265.921 142.169 265.921 142.169C264.399 141.817 262.718 140.877 262.943 139.141C263.626 133.869 263.185 120.057 263.535 111.431C263.535 111.431 263.553 109.748 262.482 108.57C262.481 108.569 262.479 108.569 262.479 108.568C262.303 108.376 262.1 108.197 261.861 108.042C260.262 106.999 252.784 99.921 249.546 88.6323C249.163 87.3451 249.008 86.5541 248.999 86.5102C248.999 86.5087 248.999 86.5057 248.998 86.5043H248.999C249.918 82.3171 260.174 75.9523 262.656 74.8144C262.732 74.7807 262.816 74.8027 262.907 74.8672C262.908 74.8672 262.908 74.8685 262.91 74.8702C263.726 75.5556 264.07 76.8532 264.08 76.8765C264.081 76.8807 264.083 76.8839 264.084 76.8881L256.362 86.8821C262.189 92.4869 264.036 96.1967 265.443 95.9039C266.798 95.6227 271.354 96.585 271.712 96.6612C271.819 96.6376 271.925 96.6128 272.037 96.5937C272.037 96.5937 276.899 99.3338 280.509 97.3054C280.509 97.3054 280.544 97.3114 280.612 97.3215C281.492 97.4606 287.772 98.5033 289.288 100.106C289.81 100.658 290.01 104.016 290.065 107.737C290.146 112.922 289.944 118.814 289.944 118.815C290.31 124.46 293.277 139.994 289.131 140.854Z" fill="#FFD524"/>
<path d="M271.736 96.6661C271.736 96.6661 277.116 102.216 280.963 101.079C280.963 101.079 281.475 100.329 279.743 100.089C278.01 99.8488 276.14 99.947 271.736 96.6661Z" fill="#F2B111"/>
<path d="M269.102 142.773C267.326 142.473 265.921 142.168 265.921 142.168C264.4 141.817 262.718 140.876 262.944 139.141C263.626 133.869 263.185 120.056 263.536 111.43C263.536 111.43 263.553 109.748 262.483 108.57C264.161 110.052 268.745 114.449 269.868 119.196C271.067 124.261 270.215 137.532 269.102 142.773Z" fill="#F2B111"/>
<path d="M263.146 74.7113C263.146 74.7113 263.165 73.1987 263.429 72.8942C263.693 72.5897 263.875 73.4424 263.916 73.7065C263.957 73.9701 263.146 74.7113 263.146 74.7113Z" fill="#ECAF94"/>
<path d="M284.45 74.0583C284.45 74.0583 284.064 73.0391 283.973 72.7644C283.881 72.4894 283.686 72.4743 283.664 72.6573C283.641 72.8408 283.584 73.2301 283.721 73.4475C283.858 73.6653 284.45 74.0583 284.45 74.0583Z" fill="#ECAF94"/>
<path d="M59.9499 201.013C60.0241 201.167 60.1912 201.997 60.4873 202.681V202.682C60.6656 203.095 60.89 203.453 61.1684 203.583C61.9116 203.929 63.1604 203.336 63.1604 203.336C63.1604 203.336 65.3008 203.583 65.5088 203.484C65.7169 203.385 65.9252 200.173 65.9252 200.173C65.9252 200.173 64.2603 198.443 64.1118 198.394C63.963 198.345 62.7445 198.987 62.5362 198.987C62.3282 198.987 61.1092 198.191 60.7821 198.391C60.455 198.591 59.8309 200.766 59.9499 201.013Z" fill="#FFF5DE"/>
<path d="M62.5361 198.987C62.5361 198.987 62.9076 199.827 63.0117 199.901C63.1156 199.975 64.1117 198.394 64.1117 198.394C63.9629 198.344 62.7444 198.987 62.5361 198.987Z" fill="#F2F7FE"/>
<path d="M60.8069 199.226C60.8069 199.226 62.328 200.634 62.3081 200.766C62.2883 200.898 60.6631 201.837 60.6039 201.804C60.5443 201.771 60.9505 200.7 60.9307 200.519C60.9108 200.338 60.8069 199.226 60.8069 199.226Z" fill="#F2F7FE"/>
<path d="M59.9499 201.013C60.0241 201.168 60.1912 201.997 60.4873 202.682V202.683H60.4878L60.3063 201.112L60.7819 198.391C60.455 198.591 59.8309 200.766 59.9499 201.013Z" fill="#F2F7FE"/>
<path d="M63.1602 203.336C63.1602 203.336 65.3006 203.583 65.5086 203.484C65.7167 203.385 65.925 200.173 65.925 200.173C65.925 200.173 65.4593 201.821 65.4494 201.903C65.4392 201.985 64.7804 201.805 64.7804 201.805L63.1602 203.336Z" fill="#F2F7FE"/>
<path d="M65.3674 200.173L65.1294 201.025H64.6389L65.0029 200.667L65.3674 200.173Z" fill="#F2F7FE"/>
<path d="M124.733 201.013C124.808 201.167 124.974 201.997 125.27 202.681V202.682C125.449 203.095 125.673 203.453 125.952 203.583C126.695 203.929 127.944 203.336 127.944 203.336C127.944 203.336 130.084 203.583 130.292 203.484C130.5 203.385 130.708 200.173 130.708 200.173C130.708 200.173 129.044 198.443 128.895 198.394C128.746 198.345 127.527 198.987 127.319 198.987C127.111 198.987 125.892 198.191 125.565 198.391C125.238 198.591 124.614 200.766 124.733 201.013Z" fill="#FFF5DE"/>
<path d="M127.32 198.987C127.32 198.987 127.691 199.827 127.795 199.901C127.899 199.975 128.895 198.394 128.895 198.394C128.746 198.344 127.528 198.987 127.32 198.987Z" fill="#F2F7FE"/>
<path d="M125.591 199.226C125.591 199.226 127.112 200.634 127.092 200.766C127.072 200.898 125.447 201.837 125.387 201.804C125.328 201.771 125.734 200.7 125.714 200.519C125.695 200.338 125.591 199.226 125.591 199.226Z" fill="#F2F7FE"/>
<path d="M124.733 201.013C124.808 201.168 124.974 201.997 125.27 202.682V202.683H125.271L125.09 201.112L125.565 198.391C125.238 198.591 124.614 200.766 124.733 201.013Z" fill="#F2F7FE"/>
<path d="M127.944 203.336C127.944 203.336 130.085 203.583 130.293 203.484C130.501 203.385 130.709 200.173 130.709 200.173C130.709 200.173 130.243 201.821 130.233 201.903C130.223 201.985 129.564 201.805 129.564 201.805L127.944 203.336Z" fill="#F2F7FE"/>
<path d="M130.151 200.173L129.913 201.025H129.423L129.787 200.667L130.151 200.173Z" fill="#F2F7FE"/>
<path d="M139.245 194.958C139.32 195.112 139.487 195.941 139.783 196.626V196.627C139.961 197.039 140.185 197.398 140.464 197.528C141.207 197.873 142.456 197.281 142.456 197.281C142.456 197.281 144.596 197.528 144.804 197.429C145.012 197.33 145.221 194.117 145.221 194.117C145.221 194.117 143.556 192.388 143.407 192.339C143.259 192.289 142.04 192.932 141.832 192.932C141.624 192.932 140.405 192.136 140.078 192.336C139.751 192.536 139.126 194.71 139.245 194.958Z" fill="#FFF5DE"/>
<path d="M141.832 192.931C141.832 192.931 142.203 193.772 142.307 193.846C142.411 193.92 143.407 192.338 143.407 192.338C143.258 192.289 142.039 192.931 141.832 192.931Z" fill="#F2F7FE"/>
<path d="M140.102 193.17C140.102 193.17 141.623 194.578 141.603 194.71C141.584 194.842 139.958 195.781 139.899 195.748C139.84 195.715 140.246 194.645 140.226 194.463C140.206 194.282 140.102 193.17 140.102 193.17Z" fill="#F2F7FE"/>
<path d="M139.245 194.958C139.32 195.112 139.487 195.941 139.783 196.626V196.627H139.783L139.602 195.057L140.078 192.335C139.751 192.536 139.126 194.71 139.245 194.958Z" fill="#F2F7FE"/>
<path d="M142.456 197.28C142.456 197.28 144.596 197.527 144.804 197.429C145.012 197.33 145.221 194.117 145.221 194.117C145.221 194.117 144.755 195.765 144.745 195.847C144.735 195.929 144.076 195.749 144.076 195.749L142.456 197.28Z" fill="#F2F7FE"/>
<path d="M144.663 194.117L144.425 194.969H143.935L144.299 194.612L144.663 194.117Z" fill="#F2F7FE"/>
<path d="M101.865 181.05C101.94 181.204 102.107 182.033 102.403 182.718V182.719C102.582 183.132 102.805 183.49 103.084 183.62C103.827 183.966 105.076 183.373 105.076 183.373C105.076 183.373 107.217 183.62 107.425 183.521C107.633 183.423 107.841 180.21 107.841 180.21C107.841 180.21 106.176 178.48 106.027 178.431C105.879 178.382 104.66 179.024 104.452 179.024C104.244 179.024 103.025 178.229 102.698 178.428C102.371 178.628 101.747 180.803 101.865 181.05Z" fill="#FFF5DE"/>
<path d="M104.452 179.024C104.452 179.024 104.823 179.864 104.928 179.938C105.032 180.012 106.027 178.431 106.027 178.431C105.879 178.381 104.66 179.024 104.452 179.024Z" fill="#F2F7FE"/>
<path d="M102.723 179.263C102.723 179.263 104.244 180.671 104.224 180.803C104.204 180.935 102.579 181.874 102.519 181.841C102.46 181.808 102.866 180.737 102.846 180.556C102.827 180.374 102.723 179.263 102.723 179.263Z" fill="#F2F7FE"/>
<path d="M101.865 181.05C101.94 181.204 102.107 182.034 102.403 182.719V182.72H102.403L102.222 181.149L102.698 178.428C102.371 178.628 101.747 180.803 101.865 181.05Z" fill="#F2F7FE"/>
<path d="M105.076 183.373C105.076 183.373 107.216 183.62 107.424 183.521C107.632 183.422 107.84 180.21 107.84 180.21C107.84 180.21 107.375 181.858 107.365 181.94C107.355 182.022 106.696 181.842 106.696 181.842L105.076 183.373Z" fill="#F2F7FE"/>
<path d="M107.284 180.21L107.046 181.062H106.555L106.919 180.704L107.284 180.21Z" fill="#F2F7FE"/>
<path d="M124.729 170.346C124.729 170.346 128.13 166.377 124.939 163.857C124.939 163.857 122.607 162.445 120.707 162.56C120.707 162.56 123.4 167.077 122.529 167.526C121.657 167.976 119.89 162.277 119.89 162.277C119.89 162.277 114.585 161.762 112.878 162.583C112.878 162.583 117.414 166.294 116.458 166.515C115.503 166.736 110.604 163.093 110.604 163.093C110.604 163.093 105.666 163.933 105.93 166.946C106.193 169.958 107.894 170.888 108.642 170.808C109.39 170.728 113.764 169.058 113.86 169.671C113.955 170.284 111.322 172.286 109.478 172.38C109.478 172.38 112.959 176.219 115.273 175.111C117.587 174.003 117.784 172.247 119.226 171.588C120.668 170.929 121.9 170.931 121.304 171.603C120.709 172.275 118.099 172.927 117.274 174.386C116.449 175.846 115.709 176.829 118.103 176.469C120.496 176.109 124.387 174.357 124.558 172.351C124.729 170.346 124.729 170.346 124.729 170.346Z" fill="#F4458D"/>
<path d="M108.355 167.027C108.355 167.027 121.767 166.51 124.729 170.346C124.729 170.346 125.384 172.308 127.4 174.094L127.714 174.951C127.714 174.951 125.39 172.5 124.558 172.352C124.558 172.352 125.859 167.6 108.355 167.027Z" fill="#F4458D"/>
<path d="M127.4 174.094C127.4 174.094 130.278 176.223 130.478 180.027L129.956 180.074C129.956 180.074 129.037 176.14 127.375 174.602C125.713 173.064 127.4 174.094 127.4 174.094Z" fill="#F4458D"/>
<path d="M136.621 165.355C136.621 165.355 131.211 162.325 133.736 158.213C133.736 158.213 135.756 155.688 137.92 155.038C137.92 155.038 136.766 161.171 137.92 161.315C139.075 161.459 138.714 154.389 138.714 154.389C138.714 154.389 144.414 151.647 146.65 151.864C146.65 151.864 143.115 157.852 144.269 157.708C145.423 157.563 149.391 151.503 149.391 151.503C149.391 151.503 155.235 150.421 156.173 153.884C157.111 157.347 155.596 159.078 154.73 159.295C153.864 159.511 148.309 159.439 148.454 160.161C148.598 160.882 152.35 162.036 154.442 161.387C154.442 161.387 152.133 167.087 149.103 166.798C146.073 166.509 145.135 164.633 143.259 164.489C141.383 164.345 140.013 164.85 140.951 165.355C141.888 165.86 145.063 165.52 146.578 166.808C148.093 168.097 149.32 168.89 146.506 169.467C143.692 170.044 138.642 169.684 137.632 167.519C136.621 165.355 136.621 165.355 136.621 165.355Z" fill="#FF6CAF"/>
<path d="M153.504 154.967C153.504 154.967 138.353 159.873 136.621 165.355C136.621 165.355 136.694 167.808 135.179 170.622V171.704C135.179 171.704 136.766 168.025 137.632 167.52C137.632 167.52 134.241 162.758 153.504 154.967Z" fill="#FF6CAF"/>
<path d="M135.179 170.622C135.179 170.622 132.842 174.17 134.174 178.489L134.775 178.328C134.775 178.328 134.192 173.57 135.414 171.178C136.637 168.785 135.179 170.622 135.179 170.622Z" fill="#FF6CAF"/>
<path d="M128.013 161.176C128.013 161.176 135.146 157.182 131.817 151.761C131.817 151.761 129.155 148.433 126.302 147.577C126.302 147.577 127.823 155.661 126.302 155.851C124.78 156.041 125.255 146.721 125.255 146.721C125.255 146.721 117.743 143.107 114.794 143.392C114.794 143.392 119.454 151.286 117.933 151.096C116.411 150.905 111.18 142.917 111.18 142.917C111.18 142.917 103.477 141.49 102.241 146.055C101.005 150.62 103.002 152.902 104.143 153.188C105.284 153.473 112.607 153.378 112.417 154.329C112.227 155.28 107.281 156.802 104.523 155.946C104.523 155.946 107.566 163.459 111.561 163.078C115.555 162.698 116.791 160.225 119.264 160.035C121.736 159.845 123.543 160.511 122.307 161.176C121.071 161.842 116.886 161.395 114.889 163.092C112.892 164.79 111.275 165.836 114.984 166.597C118.693 167.358 125.35 166.883 126.682 164.029C128.013 161.176 128.013 161.176 128.013 161.176Z" fill="#FF6CAF"/>
<path d="M105.76 147.482C105.76 147.482 125.731 153.949 128.013 161.176C128.013 161.176 127.918 164.41 129.916 168.119V169.545C129.916 169.545 127.823 164.695 126.682 164.029C126.682 164.029 131.152 157.753 105.76 147.482Z" fill="#FF6CAF"/>
<path d="M129.916 168.119C129.916 168.119 132.995 172.796 131.24 178.489L130.447 178.276C130.447 178.276 131.216 172.005 129.605 168.852C127.994 165.698 129.916 168.119 129.916 168.119Z" fill="#FF6CAF"/>
<path d="M128.254 190.835C120.537 190.835 114.282 184.58 114.282 176.863H142.225C142.225 184.58 135.97 190.835 128.254 190.835Z" fill="#F4458D"/>
<path d="M124.816 190.728C125.384 190.799 125.964 190.835 126.552 190.835C134.268 190.835 140.523 184.579 140.523 176.863H137.052C137.052 183.992 131.713 189.873 124.816 190.728Z" fill="#FF6CAF"/>
<path d="M113.965 177.292H142.685V176.863H113.965V177.292Z" fill="#F4458D"/>
<path d="M134.22 190.835H121.139C121.139 190.216 121.641 189.715 122.259 189.715H133.1C133.719 189.715 134.22 190.216 134.22 190.835Z" fill="#F4458D"/>
<path d="M137.769 122.247H94.8469L97.7211 92.7375H140.644L137.769 122.247Z" fill="#E5287E"/>
<path d="M139.322 122.247H96.3997L99.2738 92.7375H142.196L139.322 122.247Z" fill="#F4458D"/>
<path d="M120.308 126.726H112.691L115.183 109.72H122.799L120.308 126.726Z" fill="#E5287E"/>
<path d="M123.854 126.215H108.217V127.44H123.854V126.215Z" fill="#E5287E"/>
<path d="M78.1326 189.661H46.2908V186.785L62.5199 185.321L78.1326 186.785V189.661Z" fill="#D8257F"/>
<path d="M48.3684 189.8C48.6993 188.392 47.8259 186.982 46.4176 186.651C45.0094 186.32 43.5995 187.194 43.2687 188.602C42.9379 190.01 43.8113 191.42 45.2196 191.751C46.6278 192.081 48.0376 191.208 48.3684 189.8Z" fill="#D8257F"/>
<path d="M75.0391 189.209C75.0391 187.763 76.2117 186.59 77.6583 186.59C79.105 186.59 80.2773 187.763 80.2773 189.209C80.2773 190.656 79.105 191.829 77.6583 191.829C76.2119 191.829 75.0391 190.656 75.0391 189.209Z" fill="#D8257F"/>
<path d="M76.9913 157.902H47.4318C45.9222 157.902 44.6985 156.678 44.6985 155.169H79.7244C79.7247 156.678 78.5009 157.902 76.9913 157.902Z" fill="#D8257F"/>
<path d="M63.9033 189.661H60.6292L59.7104 147.998H64.7122L63.9033 189.661Z" fill="#D8257F"/>
<path d="M35.5415 149.408V107.482C35.5415 100.105 40.2417 94.1249 46.0396 94.1249H69.7799C75.5778 94.1249 80.2778 100.105 80.2778 107.482V149.408H35.5415Z" fill="#F4458D"/>
<path d="M89.7902 155.169H39.0319C37.1042 155.169 35.5415 153.606 35.5415 151.678V149.408H89.7902V155.169Z" fill="#F4458D"/>
<path d="M95.8727 155.169H57.4717C56.0464 155.169 54.8909 154.013 54.8909 152.588V151.989C54.8909 150.564 56.0461 149.408 57.4717 149.408H95.8727C97.298 149.408 98.4535 150.564 98.4535 151.989V152.588C98.4535 154.013 97.298 155.169 95.8727 155.169Z" fill="#E5287E"/>
<path d="M38.0635 149.408V107.482C38.0635 100.105 42.7637 94.1249 48.5619 94.1249H72.3021C78.1 94.1249 82.8002 100.105 82.8002 107.482V149.408H38.0635Z" fill="#E5287E"/>
<path d="M92.0923 176.21C92.0923 176.21 90.4771 180.535 90.82 182.139C91.163 183.743 90.6098 186.853 91.2664 188.244C91.923 189.634 93.0956 191.656 91.9701 192.167C91.5434 192.362 86.5739 188.507 86.2892 187.37C86.0045 186.233 85.7829 182.877 84.8319 181.056C83.8807 179.234 84.6779 177.765 86.0529 177.095C87.4274 176.425 89.3434 172.756 89.3434 172.756L92.0923 176.21Z" fill="#282F47"/>
<path d="M84.5253 88.719C82.8751 86.7023 79.8102 86.1593 79.8102 86.1593C73.7725 81.0876 68.5431 88.3025 67.5089 90.9492C66.4734 93.5948 65.8475 98.0904 61.4843 100.227C53.7344 104.023 62.1508 110.507 62.1508 110.507C65.6653 102.749 82.0553 116.586 81.3032 117.202C96.6226 123.976 88.2785 93.3052 84.5253 88.719Z" fill="#461E0F"/>
<path d="M70.7078 111.971C70.7078 111.971 73.5579 117.096 77.5534 121.348C79.6638 123.594 82.0949 125.597 84.5934 126.47C85.8129 126.897 87.048 127.054 88.2702 126.84C89.0498 126.704 88.7111 122.099 87.6275 118.599C86.1999 113.989 81.7497 102.533 81.7497 102.533L79.2036 103.619C79.2036 103.619 82.7353 118.047 82.3148 118.108L78.5799 108.657L70.7078 111.971Z" fill="#E59D80"/>
<path d="M65.2671 135.348C65.2671 135.348 93.6441 134.896 97.43 137.304C101.216 139.712 93.6456 178.164 93.6456 178.164C93.6456 178.164 86.306 178.399 85.7226 176.456C85.7226 176.456 87.0427 158.439 85.8875 155.326C84.7322 152.214 85.4446 147.9 85.4446 147.9C85.4446 147.9 71.0898 150.09 66.531 149.012C61.9729 147.934 65.2671 135.348 65.2671 135.348Z" fill="#F2B111"/>
<path d="M96.9113 182.92C96.9113 182.92 98.4675 187.267 99.7644 188.271C101.061 189.275 102.645 192.008 104.044 192.647C105.443 193.286 107.643 194.074 107.113 195.191C106.912 195.615 100.629 195.876 99.6776 195.191C98.7266 194.506 96.3923 192.085 94.4899 191.307C92.588 190.529 92.2493 188.892 92.8674 187.493C93.4859 186.094 92.5823 182.056 92.5823 182.056L96.9113 182.92Z" fill="#363C54"/>
<path d="M49.1757 134.338C49.1757 134.338 82.8507 139.607 85.4449 142.603C88.0394 145.6 98.3151 184.631 98.3151 184.631C98.3151 184.631 95.3169 186.314 92.5829 184.757C92.5829 184.757 84.7595 171.528 81.3031 167.378C77.847 163.228 76.5214 150.389 75.952 150.259C75.3827 150.13 57.2614 152.448 50.5851 148.03C46.6507 145.426 49.1757 134.338 49.1757 134.338Z" fill="#FFD524"/>
<path d="M60.8048 106.282C62.7917 104.786 68.7724 103.134 72.5135 104.817C74.2847 105.614 76.9719 106.659 78.5805 108.657C80.3162 110.814 82.3153 118.108 82.3153 118.108C81.6614 121.95 78.6073 122.42 78.6073 122.42C80.3958 129.183 71.969 127.416 72.5137 131.167C73.4634 137.711 67.3414 141.148 64.005 142.673C59.6386 144.67 47.3665 147.186 47.3534 142.673C47.2929 122.118 55.0914 110.584 60.8048 106.282Z" fill="#FFF5DE"/>
<path d="M61.4839 113.574C61.4839 113.574 63.697 125.519 69.6921 129.026H75.3335L69.3781 121.582L61.4839 113.574Z" fill="#EBF3FA"/>
<path d="M81.5501 103.742C81.5501 103.742 83.3823 101.559 83.7034 100.898C84.0245 100.237 83.4237 97.3899 82.6766 97.4085C82.2052 97.4204 81.6252 99.145 81.1104 99.7719C80.5952 100.399 78.3538 101.291 79.302 103.926C79.4086 104.223 81.5501 103.742 81.5501 103.742Z" fill="#E59D80"/>
<path d="M76.8919 108.106C77.4089 108.881 76.7778 111.055 73.8481 110.378C71.9249 109.934 68.1766 106.814 68.8531 105.222C69.1744 104.465 71.0186 102.689 72.1778 98.0698L72.5135 98.2293L78.154 100.919C78.154 100.919 77.5428 102.754 77.0902 104.514C76.7094 105.992 76.6784 107.785 76.8919 108.106Z" fill="#ECAF94"/>
<path d="M78.1539 100.919C78.1539 100.919 77.5427 102.754 77.0901 104.514C73.7897 103.574 72.805 100.093 72.5134 98.229L78.1539 100.919Z" fill="#E59D80"/>
<path d="M81.3661 101.929C81.3661 101.929 73.4587 103.764 72.392 98.8217C71.3255 93.8798 69.5865 90.7884 74.59 89.4082C79.5937 88.028 80.9845 89.7013 81.7418 91.264C82.4991 92.8271 83.3955 101.324 81.3661 101.929Z" fill="#ECAF94"/>
<path d="M78.1778 88.5112C78.1778 88.5112 78.1279 94.1985 73.94 96.9589C71.4894 98.5742 71.3741 100.227 71.3741 100.227C71.3741 100.227 69.9232 95.3608 69.6924 91.7C69.6924 91.7 75.9463 86.1027 78.1778 88.5112Z" fill="#461E0F"/>
<path d="M77.6802 89.5157C77.6802 89.5157 80.0175 90.2931 81.057 91.1535C82.5964 92.4276 82.9981 96.5716 82.8146 97.6031C82.8146 97.6031 83.2339 90.4012 80.9154 88.5662C78.4573 86.6207 77.6802 89.5157 77.6802 89.5157Z" fill="#461E0F"/>
<path d="M61.4835 113.574C62.2884 115.493 63.2196 117.297 64.2072 118.932C67.9812 125.171 72.5954 128.941 74.2617 127.184C74.7227 126.697 75.8861 125.992 74.6701 123.379C73.7306 121.362 72.5671 118.838 71.4255 116.354C69.072 111.233 66.8143 106.282 66.8143 106.282C66.0957 106.282 58.5357 106.545 61.4835 113.574Z" fill="#ECAF94"/>
<path d="M69.3783 121.582C69.6369 121.427 83.8639 124.882 88.2703 125.958C89.0792 126.155 89.557 126.272 89.557 126.272V127.932C89.557 127.932 74.8355 128.624 72.5364 127.567C70.2372 126.512 68.0422 124.054 68.0422 124.054L69.3783 121.582Z" fill="#ECAF94"/>
<path d="M61.4835 113.574C62.2884 115.493 63.2196 117.297 64.2072 118.932C67.2812 118.534 70.1199 117.098 71.4255 116.354C69.072 111.233 66.8143 106.282 66.8143 106.282C66.0957 106.282 58.5357 106.545 61.4835 113.574Z" fill="#FFF5DE"/>
<path d="M88.2708 125.958C88.2708 125.958 92.9573 124.612 94.2616 124.984C95.1818 125.246 96.3567 126.607 96.9694 127.386C97.1484 127.613 96.9835 127.946 96.6944 127.943C95.9103 127.935 94.642 127.884 93.9782 127.535C93.3521 127.206 92.4192 127.93 91.381 127.935C90.5833 127.939 89.5577 127.933 89.5577 127.933L88.2708 125.958Z" fill="#ECAF94"/>
<path d="M20.7802 203.46H20.7157C20.3358 203.46 20.0306 202.955 20.0392 202.341L21.0648 130.455L24.086 129.885L21.5097 202.346C21.4876 202.972 21.1675 203.46 20.7802 203.46Z" fill="#F4458D"/>
<path d="M149.27 203.46H149.334C149.714 203.46 150.019 202.955 150.011 202.341L148.985 130.455L145.964 129.885L148.54 202.346C148.562 202.972 148.882 203.46 149.27 203.46Z" fill="#F4458D"/>
<path d="M155.259 131.777H15.4135C14.4534 131.777 13.675 130.999 13.675 130.039V129.179C13.675 128.219 14.4534 127.44 15.4135 127.44H155.259C156.219 127.44 156.998 128.219 156.998 129.179V130.039C156.998 130.999 156.219 131.777 155.259 131.777Z" fill="#F4458D"/>
<path d="M239.38 194.519C239.38 194.519 224.099 188.503 218.937 179.397L205.385 187.223C205.385 187.223 215.741 200.507 224.501 201.616L239.38 194.519Z" fill="#FFF5DE"/>
<path d="M318.581 167.654C318.581 167.654 308.932 175.132 301.154 174.971L301.006 186.602C301.006 186.602 313.427 185.031 317.463 179.856L318.581 167.654Z" fill="#FFF5DE"/>
<path d="M352.505 147.137C352.505 147.137 338.099 149.537 329.998 144.954L323.241 157.121C323.241 157.121 337.216 162.515 344.403 159.354L352.505 147.137Z" fill="#FFF5DE"/>
<path d="M166.684 151.107L168.549 150.155L170.319 150.631L170.91 151.738L171.721 151.961L172.364 152.894L171.383 154.489L168.239 154.654L165.873 153.898L166.684 151.107Z" fill="#FFF5DE"/>
<path d="M218.999 162.423L220.864 161.47L222.634 161.946L223.225 163.054L224.037 163.276L224.679 164.21L223.698 165.805L220.554 165.969L218.188 165.214L218.999 162.423Z" fill="#FFF5DE"/>
<path d="M181.571 145.228L183.436 144.276L185.206 144.752L185.797 145.86L186.608 146.082L187.251 147.016L186.27 148.611L183.126 148.775L180.76 148.02L181.571 145.228Z" fill="#FFF5DE"/>
<path d="M215.998 144.546L196.347 145.905L185.462 142.459L205.113 141.1L215.998 144.546Z" fill="#FFF5DE"/>
<path d="M216.912 155.829L199.747 158.258L182.785 153.653L199.95 151.224L216.912 155.829Z" fill="#FFF5DE"/>
<path d="M220.847 131.42L235.885 133.011L242.399 133.702V151.024L235.885 151.862L220.847 153.768V131.42Z" fill="#FF6CAF"/>
<path d="M220.559 131.424C222.993 131.424 224.967 136.425 224.967 142.595C224.967 148.764 222.993 153.766 220.559 153.766C218.125 153.766 216.152 148.764 216.152 142.595C216.152 136.425 218.125 131.424 220.559 131.424Z" fill="#F4458D"/>
<path d="M224.384 153.548V153.241C226.73 153.241 228.638 148.465 228.638 142.595C228.638 136.724 226.73 131.948 224.384 131.948V131.64C226.9 131.64 228.946 136.554 228.946 142.595C228.946 148.634 226.9 153.548 224.384 153.548Z" fill="#F4458D"/>
<path d="M228.241 153.143V152.83C230.585 152.83 232.493 148.238 232.493 142.594C232.493 136.951 230.585 132.359 228.241 132.359V132.046C230.758 132.046 232.806 136.778 232.806 142.594C232.806 148.411 230.758 153.143 228.241 153.143Z" fill="#F4458D"/>
<path d="M245.004 136.586C244.151 136.508 224.09 134.694 223.544 134.601L223.597 134.292C224.131 134.384 244.824 136.255 245.033 136.274L245.004 136.586Z" fill="#F4458D"/>
<path d="M224.57 137.864L224.557 138.176L245.669 139.049L245.682 138.736L224.57 137.864Z" fill="#F4458D"/>
<path d="M245.976 141.322H224.967V141.635H245.976V141.322Z" fill="#F4458D"/>
<path d="M245.978 144.041L224.832 145.002L224.846 145.314L245.992 144.353L245.978 144.041Z" fill="#F4458D"/>
<path d="M224.416 148.294L224.392 148.143L224.233 148.102C224.262 147.987 224.262 147.987 225.284 147.904C225.864 147.857 226.691 147.792 227.684 147.716C229.669 147.563 232.314 147.362 234.96 147.162C240.25 146.763 245.539 146.37 245.539 146.37L245.563 146.682C238.395 147.215 224.752 148.239 224.416 148.294Z" fill="#F4458D"/>
<path d="M244.879 148.401L223.419 150.877L223.455 151.188L244.915 148.712L244.879 148.401Z" fill="#F4458D"/>
<path d="M246.002 142.353C246.002 147.15 244.389 151.024 242.4 151.024L235.885 151.862C240.724 142.269 235.885 133.011 235.885 133.011L242.4 133.703C244.389 133.703 246.002 137.577 246.002 142.353Z" fill="#F4458D"/>
<path d="M327.244 81.4484V55.6604C327.244 51.1229 330.565 47.4446 334.663 47.4446H351.441C355.539 47.4446 358.861 51.1229 358.861 55.6604V81.4484H327.244Z" fill="#E5287E"/>
<path d="M329.026 81.4484V55.6604C329.026 51.1229 332.348 47.4446 336.446 47.4446H353.224C357.321 47.4446 360.643 51.1229 360.643 55.6604V81.4484H329.026Z" fill="#FF6CAF"/>
<path d="M365.584 85.5195H329.71C328.348 85.5195 327.244 84.415 327.244 83.0525V81.4484H365.584V85.5195Z" fill="#E5287E"/>
<path d="M369.882 85.5195H342.743C341.735 85.5195 340.919 84.7027 340.919 83.6952V83.2721C340.919 82.2647 341.735 81.4481 342.743 81.4481H369.882C370.89 81.4481 371.707 82.2647 371.707 83.2721V83.6952C371.707 84.7027 370.89 85.5195 369.882 85.5195Z" fill="#F4458D"/>
<path d="M347.288 114.964H344.974L344.325 85.5195H347.86L347.288 114.964Z" fill="#E5287E"/>
<path d="M357.344 114.964H334.84V112.932L346.31 111.897L357.344 112.932V114.964Z" fill="#E5287E"/>
<path d="M336.305 115.108C336.54 114.113 335.924 113.116 334.929 112.881C333.934 112.646 332.937 113.262 332.702 114.257C332.467 115.252 333.083 116.249 334.078 116.484C335.073 116.719 336.07 116.103 336.305 115.108Z" fill="#E5287E"/>
<path d="M357.039 116.513C358.062 116.497 358.877 115.655 358.862 114.633C358.846 113.611 358.004 112.795 356.981 112.811C355.959 112.827 355.143 113.668 355.159 114.691C355.175 115.713 356.017 116.529 357.039 116.513Z" fill="#E5287E"/>
<path d="M356.538 87.4512H335.647C334.58 87.4512 333.715 86.5863 333.715 85.5195H358.47C358.47 86.5863 357.605 87.4512 356.538 87.4512Z" fill="#E5287E"/>
<path d="M311.204 48.4436C311.228 48.4706 311.252 48.4979 311.277 48.5232L311.282 48.5289C311.306 48.5552 311.33 48.5805 311.354 48.6053C312.049 49.2076 314.349 48.1279 316.576 46.137C318.801 44.1468 320.131 41.9796 319.61 41.2225C319.588 41.1955 319.566 41.1693 319.542 41.143L319.537 41.137C319.514 41.1095 319.49 41.0822 319.466 41.0549C317.426 38.7732 313.922 38.5782 311.641 40.6182C309.359 42.6588 309.163 46.1618 311.204 48.4436Z" fill="#E5287E"/>
<path d="M311.277 48.5237L311.282 48.5286C311.29 48.539 311.297 48.548 311.305 48.5566C311.32 48.5745 311.337 48.5896 311.354 48.605C312.048 49.2073 314.35 48.1284 316.575 46.137C318.801 44.1476 320.131 41.9803 319.61 41.2233C319.596 41.2045 319.582 41.1851 319.567 41.1688C319.559 41.1598 319.552 41.1509 319.542 41.1432L319.536 41.137C319.064 40.6899 317.781 41.0886 316.282 42.0592C315.644 42.472 314.967 42.989 314.297 43.5886C313.771 44.0598 313.294 44.5401 312.88 45.0087C311.53 46.5419 310.849 47.9571 311.277 48.5237Z" fill="#F4458D"/>
<path d="M312.88 45.0086C313.273 45.3327 313.777 45.5256 314.327 45.5256C315.589 45.5256 316.611 44.503 316.611 43.2416C316.611 42.8084 316.49 42.4033 316.282 42.0591C315.644 42.4719 314.967 42.9889 314.297 43.5885C313.771 44.0597 313.294 44.5397 312.88 45.0086Z" fill="#FFD524"/>
<path d="M306.714 69.1876H307.222V60.4379L302.024 47.1734L311.306 39.9809L310.995 39.579L301.412 47.0045L306.714 60.5341V69.1876Z" fill="#E5287E"/>
<path d="M312.354 40.8975C312.588 40.7321 312.643 40.4083 312.477 40.1747L311.704 39.0844C311.539 38.8508 311.215 38.7957 310.981 38.9611C310.748 39.1268 310.693 39.4504 310.859 39.684L311.632 40.7743C311.797 41.0078 312.121 41.0632 312.354 40.8975Z" fill="#E5287E"/>
<path d="M302.506 47.0208C302.506 46.6493 302.205 46.3478 301.833 46.3478C301.462 46.3478 301.16 46.6491 301.16 47.0208C301.16 47.3925 301.462 47.6935 301.833 47.6935C302.205 47.6935 302.506 47.3925 302.506 47.0208Z" fill="#E5287E"/>
<path d="M304.501 70.3911H309.614V69.8749C309.614 69.3561 309.194 68.9355 308.675 68.9355H305.478C304.938 68.9355 304.501 69.373 304.501 69.9125V70.3911Z" fill="#E5287E"/>
<path d="M306.434 69.188H307.508V61.0579H306.434V69.188Z" fill="#E5287E"/>
<path d="M402.712 122.365H402.757C403.026 122.365 403.242 122.02 403.235 121.6L402.51 72.4523L400.375 72.0627L402.196 121.604C402.212 122.031 402.438 122.365 402.712 122.365Z" fill="#F4458D"/>
<path d="M307.097 122.365H307.052C306.783 122.365 306.568 122.02 306.574 121.6L307.298 72.4523L309.434 72.0627L307.613 121.604C307.597 122.031 307.371 122.365 307.097 122.365Z" fill="#F4458D"/>
<path d="M406.045 73.3567H300.474C299.784 73.3567 299.225 72.7978 299.225 72.1082V71.6395C299.225 70.9502 299.784 70.391 300.474 70.391H406.045C406.734 70.391 407.293 70.9499 407.293 71.6395V72.1082C407.293 72.7978 406.734 73.3567 406.045 73.3567Z" fill="#F4458D"/>
<path d="M394.822 66.7208H364.486L366.518 45.8651H396.853L394.822 66.7208Z" fill="#E5287E"/>
<path d="M395.919 66.7208H365.583L367.615 45.8651H397.95L395.919 66.7208Z" fill="#F4458D"/>
<path d="M382.481 69.8862H377.098L378.858 57.8673H384.241L382.481 69.8862Z" fill="#E5287E"/>
<path d="M384.986 69.5249H373.935V70.3911H384.986V69.5249Z" fill="#E5287E"/>
<path d="M321.79 51.8664C321.79 51.8052 322.683 49.9583 322.399 49.8162C322.115 49.6741 321.606 49.6955 321.547 50.0193C321.487 50.3427 321.79 51.8664 321.79 51.8664Z" fill="#ECAF94"/>
<path d="M322.128 52.9683C322.128 52.7871 321.918 50.0218 321.452 49.4713C320.986 48.9208 320.033 48.138 319.733 48.162C319.434 48.1858 318.263 49.7426 318.615 50.9355C318.967 52.1287 320.453 53.743 320.453 53.743L322.128 52.9683Z" fill="#ECAF94"/>
<path d="M323.906 49.6184L321.19 50.432C321.1 50.459 321.005 50.4079 320.978 50.3179L319.426 45.1396C319.399 45.0494 319.45 44.9546 319.54 44.9276L322.256 44.1136C322.346 44.0865 322.441 44.1376 322.468 44.2279L324.02 49.4064C324.047 49.4959 323.996 49.5911 323.906 49.6184Z" fill="#F77721"/>
<path d="M323.2 49.8296L320.737 50.5681C320.577 50.6157 320.409 50.5252 320.361 50.3652L318.884 45.4394C318.837 45.2794 318.927 45.1111 319.087 45.0632L321.55 44.325C321.71 44.2769 321.879 44.3677 321.926 44.5276L323.403 49.4535C323.45 49.6131 323.36 49.7815 323.2 49.8296Z" fill="#E86A13"/>
<path d="M319.453 48.3634C319.453 48.3634 320.584 46.6234 320.861 46.7203C321.255 46.8585 319.835 49.0664 319.835 49.0664C319.835 49.0664 320.887 47.4164 321.051 47.5404C321.426 47.8233 320.83 48.8598 320.239 49.6545C320.239 49.6545 321.297 48.6857 321.331 48.8603C321.452 49.4715 320.17 50.9524 320.17 50.9524L319.453 49.3156V48.3634H319.453Z" fill="#ECAF94"/>
<path d="M318.604 49.9791C318.659 49.7664 318.936 45.611 319.054 46.0052C319.172 46.3993 319.453 48.5782 319.453 48.5782L318.604 49.9791Z" fill="#ECAF94"/>
<path d="M336.652 48.8348C336.652 48.8348 336.534 53.3525 335.231 56.9986C334.202 59.878 332.433 62.2136 329.4 61.3509C329.09 61.2624 328.79 61.1682 328.499 61.0658C328.496 61.0648 328.495 61.0648 328.495 61.0648C322.333 58.9179 320.339 54.0044 320.339 54.0044C320.798 53.2476 322.127 52.9689 322.127 52.9689C323.368 53.0359 328.821 55.3514 329.17 55.4221C330.431 55.6755 331.45 48.7441 332.27 46.3428C333.09 43.9412 336.444 42.8671 336.444 42.8671L336.652 48.8348Z" fill="#FFD524"/>
<path d="M335.349 53.7432L335.231 56.9985C334.202 59.8779 332.433 62.2135 329.4 61.3508C329.09 61.2623 328.79 61.1681 328.499 61.0657C328.596 61.0785 330.452 61.3292 331.229 60.5523C332.028 59.7529 331.944 57.1041 333.415 55.3386C334.887 53.5731 335.349 53.7432 335.349 53.7432Z" fill="#F2B111"/>
<path d="M335.519 113.276C335.519 113.276 337.036 114.661 336.74 115.644C336.444 116.627 335.075 117.283 334.89 118.485C334.705 119.687 333.965 120.343 333.3 120.343C332.634 120.343 330.125 120.343 330.125 120.343C330.125 120.343 329.635 119.497 330.819 119.242C332.003 118.987 332.449 117.574 332.375 116.263C332.301 114.952 332.486 113.204 332.486 113.204L335.001 112.621L335.519 113.276Z" fill="#461E0F"/>
<path d="M318.81 120.091H328.156C328.522 120.091 328.824 119.8 328.834 119.434C328.849 118.886 328.803 118.09 328.5 117.418C328 116.312 327.685 116.118 329.792 112.9C329.159 113.552 327.451 113.254 326.009 113.06C325.832 113.346 323.158 117.478 322.568 117.902C321.916 118.37 319.01 118.204 318.81 120.091Z" fill="#461E0F"/>
<path d="M333.373 68.2604C333.373 68.2604 326.596 81.0472 324.755 88.0882C323.326 93.5534 332.049 114.699 332.049 114.699C332.049 114.699 332.762 114.652 333.925 114.195C335.067 113.746 335.502 112.542 335.502 112.542C335.502 112.542 334.985 97.4224 333.219 90.1077C332.823 88.4656 335.139 83.1696 339.048 80.2689C342.958 77.3679 344.586 68.0355 342.259 67.4047C339.931 66.7741 333.373 68.2604 333.373 68.2604Z" fill="#282F47"/>
<path d="M339.174 64.63C339.174 64.63 332.05 90.7448 329.889 96.6092C327.728 102.473 324.301 114.92 324.301 114.92C324.301 114.92 326.468 115.937 329.242 115.456C329.242 115.456 339.66 100.195 340.113 93.4506C340.322 90.3329 350.801 77.9735 349.633 69.9144L339.174 64.63Z" fill="#363C54"/>
<path d="M349.616 72.7785C349.616 72.7785 348.1 73.5429 345.42 73.7674H345.418C342.349 74.0247 337.754 73.5729 332.156 70.4567C332.156 70.4567 330.595 69.1706 332.513 63.6994C333.965 59.5577 334.673 50.8251 336.444 42.8671C336.444 42.8671 342.193 41.0636 346.805 42.6223C350.329 43.8141 349.978 49.2222 350.629 54.8535C350.689 55.3794 350.759 55.9064 350.841 56.4323C351.803 62.597 349.616 72.7785 349.616 72.7785Z" fill="#FFD524"/>
<path d="M334.417 31.0856C334.417 31.0856 338.341 24.6988 341.379 27.9855C341.379 27.9855 343.366 28.4931 344.504 31.5855C345.664 34.7411 343.857 37.5273 342.649 37.0772C341.875 36.7886 341.513 38.1229 341.513 38.1229L334.417 31.0856Z" fill="#461E0F"/>
<path d="M340.778 27.4823C340.778 27.4823 341.048 24.838 344.912 25.0951C344.912 25.0951 343.085 25.1281 342.692 25.8898C342.692 25.8898 344.021 25.0336 344.99 25.4505C345.959 25.8668 346.37 27.6804 346.317 28.2577C346.265 28.8352 345.521 30.6384 344.869 30.7326C344.218 30.8269 343.365 30.3659 343.365 30.3659L340.778 27.4823Z" fill="#461E0F"/>
<path d="M342.724 42.4606C342.361 41.4932 341.821 40.4778 341.387 37.3889L341.155 37.47L337.255 38.844C337.255 38.844 337.528 40.0942 337.702 41.284C337.774 41.7705 337.825 42.6386 337.858 43.3969C337.892 44.172 338.654 44.2452 339.43 44.2095C341.492 44.1142 342.629 43.3451 342.724 42.4606Z" fill="#ECAF94"/>
<path d="M337.255 38.8442C337.255 38.8442 337.528 40.0944 337.702 41.2842C339.94 40.8969 340.832 38.6766 341.155 37.4702L337.255 38.8442Z" fill="#E59D80"/>
<path d="M341.507 36.9735C341.507 36.9735 342.416 34.9437 342.469 33.312C342.507 32.1473 341.322 28.0214 337.179 29.2375C337.179 29.2375 335.968 29.5355 334.926 30.482C334.097 31.2348 332.965 32.7648 334.976 36.2246L335.54 37.4097L341.507 36.9735Z" fill="#461E0F"/>
<path d="M336.667 40.0794C336.667 40.0794 341.995 39.401 341.521 36.0894C341.048 32.7781 341.417 30.4601 337.995 30.7534C334.573 31.0465 334.094 32.4044 333.983 33.5482C333.873 34.6918 335.269 40.1704 336.667 40.0794Z" fill="#ECAF94"/>
<path d="M335.562 31.0212C335.562 31.0212 337.577 34.6955 339.893 34.9482C342.21 35.2007 343.092 34.4627 343.092 34.4627C343.092 34.4627 341.183 33.3486 340.485 31.0242C340.485 31.0242 336.393 29.0141 335.562 31.0212Z" fill="#461E0F"/>
<path d="M335.968 31.2845C335.968 31.2845 335.007 32.3083 334.863 33.1896C334.719 34.0709 334.851 35.824 334.336 35.8379C334.336 35.8379 332.859 33.3557 333.876 31.6845C334.954 29.9122 335.968 31.2845 335.968 31.2845Z" fill="#461E0F"/>
<path d="M335.785 31.4448C335.785 31.4448 337.408 35.3629 340.414 36.2593C340.414 36.2593 337.236 34.1665 336.61 31.5158C335.984 28.865 335.785 31.4448 335.785 31.4448Z" fill="#461E0F"/>
<path d="M349.616 72.7783C349.616 72.7783 348.1 73.5428 345.42 73.7672H345.418C345.418 73.7672 343.215 71.0063 345.673 67.9127C348.129 64.8191 345.481 59.1109 347.373 56.0057C348.689 53.8454 349.971 54.3485 350.629 54.8531C350.689 55.379 350.759 55.906 350.841 56.4319C351.803 62.5968 349.616 72.7783 349.616 72.7783Z" fill="#F2B111"/>
<path d="M359.282 68.1903C359.282 68.1903 359.609 68.9506 360.064 69.0014C360.809 69.0845 362.228 69.7091 362.451 69.841C363.055 70.1996 363.014 71.8032 362.41 71.954C361.807 72.105 361.505 70.7592 359.618 70.3987C358.978 70.2764 358.046 70.7188 357.668 69.1857L359.282 68.1903Z" fill="#ECAF94"/>
<path d="M346.805 42.6222C352.291 44.6402 352.494 54.3589 354.939 58.6393C357.461 63.0534 359.918 68.8635 359.918 68.8635C359.918 68.8635 359.874 69.0375 358.933 69.3071C358.271 69.4965 357.579 69.4164 357.579 69.4164C357.579 69.4164 352.396 64.7276 350.988 62.8778C349.58 61.028 346.259 52.4469 346.259 52.4469C346.259 52.4469 344.627 41.8213 346.805 42.6222Z" fill="#FFD524"/>
<path d="M357.804 69.5652C357.804 69.5652 357.937 70.2181 358.746 70.7467C359.555 71.2749 360.204 71.8033 360.282 71.4763C360.36 71.1492 359.832 70.7968 359.706 70.1933C359.58 69.5895 357.804 69.5652 357.804 69.5652Z" fill="#ECAF94"/>
<path d="M392.499 87.5397C392.499 87.5397 398.822 86.5875 401.885 90.5711C404.948 94.5544 403.663 98.4239 408.801 98.8603C413.939 99.2967 414.828 101.34 413.741 104.171C412.654 107.004 419.076 107.102 420.459 110.956C421.843 114.809 421.151 121.428 411.37 119.65C401.589 117.872 398.004 111.944 393.474 113.524C388.942 115.105 382.52 110.554 384.793 107.741C387.065 104.929 383.409 105.241 383.706 98.8603C384.002 92.4796 388.178 87.3904 392.499 87.5397Z" fill="#461E0F"/>
<path d="M354.57 123.092C354.57 123.092 352.812 121.249 351.416 120.888C349.888 120.494 347.73 120.126 347.502 120.622C347.233 121.21 349.972 122.18 350.352 122.826C350.732 123.472 350.124 123.415 349.06 123.339C347.997 123.263 348.376 123.605 348.566 123.662C348.756 123.719 350.295 124.517 350.865 124.631C351.022 124.662 351.265 124.679 351.565 124.693C352.355 124.731 353.537 124.747 354.569 124.954C354.569 124.954 354.969 123.757 354.57 123.092Z" fill="#ECAF94"/>
<path d="M353.436 123.516C353.698 124.423 354.141 124.879 354.141 124.879C354.141 124.879 362.93 128.254 369.316 127.276C369.538 127.243 369.758 127.203 369.972 127.159C371.144 126.914 372.39 126.607 373.639 126.27C378.977 124.823 384.371 122.812 384.371 122.812C384.371 122.812 384.485 122.365 384.647 121.633C385.321 118.589 386.821 110.612 384.371 109.354C384.371 109.354 383.075 109.92 381.483 111.202C377.858 114.123 371.742 119.644 368.425 120.49C365.368 121.271 357.255 122.055 353.673 122.258C353.673 122.258 353.251 122.873 353.436 123.516Z" fill="#F77721"/>
<path d="M378.519 122.668C376.576 124.222 375.304 125.478 373.638 126.269C378.977 124.823 384.371 122.812 384.371 122.812C384.371 122.812 384.485 122.364 384.647 121.632L384.076 120.49C384.076 120.49 381.631 120.178 378.519 122.668Z" fill="#E86A13"/>
<path d="M369.315 127.276C369.537 127.243 369.757 127.203 369.972 127.158C369.616 127.184 369.404 127.222 369.315 127.276Z" fill="#F2CCAA"/>
<path d="M417.874 207.966C417.874 207.966 420.216 210.104 419.759 211.623C419.302 213.141 417.188 214.154 416.903 216.01C416.617 217.866 415.474 218.879 414.446 218.879C413.418 218.879 409.544 218.879 409.544 218.879C409.544 218.879 408.787 217.573 410.615 217.179C412.443 216.785 413.132 214.604 413.018 212.579C412.904 210.554 413.189 207.854 413.189 207.854L417.074 206.954L417.874 207.966Z" fill="#363C54"/>
<path d="M398.05 209.045C398.05 209.045 398.892 218.101 397.864 218.607L384.705 218.58C384.705 218.58 384.705 217.061 386.818 216.724C388.932 216.386 392.645 215.148 393.274 212.392C393.902 209.636 398.05 209.045 398.05 209.045Z" fill="#363C54"/>
<path d="M386.698 132.738L394.944 139.212L402.812 133.614H402.813L403.453 133.383C403.453 133.383 404.75 132.738 405.137 129.672C405.185 129.293 405.458 126.054 405.731 122.791C406.024 119.268 406.315 115.719 406.315 115.719L401.293 108.267C390.745 106.04 384.371 109.354 384.371 109.354C384.371 109.354 383.881 113.281 383.076 118.883C382.273 124.485 386.698 132.738 386.698 132.738Z" fill="#F77721"/>
<path d="M387.304 134.561C387.304 134.561 383.51 146.371 383.267 150.391C383.023 154.412 390.519 207.508 390.821 209.361C391.105 211.107 393.273 212.22 393.273 212.22C393.273 212.22 394.271 212.809 395.694 212.407C397.669 211.849 398.294 211.182 398.294 211.182C398.294 211.182 401.247 173.314 399.419 159.786C397.591 146.259 397.57 134.561 397.57 134.561H387.304Z" fill="#F2B111"/>
<path d="M403.379 134.209C403.379 134.209 409.166 141.974 409.705 147.224C410.245 152.473 410.552 170.911 411.701 176.028C412.851 181.145 417.074 190.993 417.074 206.954C417.074 206.954 416.635 207.869 415.28 208.356C414.846 208.512 414.265 208.663 413.702 208.792C412.584 209.048 411.437 208.502 410.927 207.475C408.072 201.726 398.976 183.185 398.511 179.337C398.18 176.613 395.309 158.587 389.045 148.009C387.541 145.47 389.968 135.371 389.968 135.371L403.379 134.209Z" fill="#FFD524"/>
<path d="M395.524 109.891C396.612 109.578 397.17 108.884 397.109 107.747C397.021 106.08 396.644 104.478 396.919 102.106L396.567 102.135L390.642 102.631C390.642 102.631 390.376 106.218 390.375 106.232C390.192 108.552 390.346 111.378 395.524 109.891Z" fill="#ECAF94"/>
<path d="M390.641 102.631C390.641 102.631 390.569 104.47 390.379 106.189C393.633 106.462 395.68 103.696 396.567 102.135L390.641 102.631Z" fill="#E59D80"/>
<path d="M389.376 104.137C389.376 104.137 397.036 105.126 397.578 100.346C398.12 95.5669 399.474 92.4755 394.607 91.6418C389.739 90.8084 388.58 92.5241 388.011 94.0753C387.442 95.6269 387.397 103.756 389.376 104.137Z" fill="#ECAF94"/>
<path d="M391.125 91.1317C391.125 91.1317 392.596 96.9761 395.727 98.1678C398.858 99.3593 400.354 98.6523 400.354 98.6523C400.354 98.6523 398.101 96.4094 397.974 92.922C397.974 92.922 393.01 88.6409 391.125 91.1317Z" fill="#461E0F"/>
<path d="M391.594 91.6459C391.594 91.6459 389.971 92.053 389.202 93.1173C388.45 94.1582 387.75 95.5697 387.671 97.389C387.671 97.389 386.517 93.3995 388.538 91.443C390.681 89.369 391.594 91.6459 391.594 91.6459Z" fill="#461E0F"/>
<path d="M417.253 143.14C417.253 143.14 416.692 145.304 416.196 145.638C415.7 145.971 414.24 147.865 414.615 148.673C415.119 149.76 416.364 151.351 416.969 151.171C417.574 150.992 417.014 149.416 418.15 148.267C418.724 147.686 420.054 146.627 419.945 145.486C419.836 144.343 419.546 142.913 419.546 142.913L417.253 143.14Z" fill="#ECAF94"/>
<path d="M416.844 144.452C416.844 144.452 415.196 145.601 414.416 145.948C413.635 146.295 413.948 146.575 414.349 146.578C414.81 146.582 415.273 146.507 416.03 146.058C416.786 145.609 417.246 144.442 416.844 144.452Z" fill="#ECAF94"/>
<path d="M401.292 108.267C401.292 108.267 405.876 109.374 408.886 112.201C413.622 116.652 418.851 120.946 419.951 125.405C420.863 129.101 420.999 134.209 419.951 144.053C419.951 144.053 419.32 144.318 418.088 144.263C417.004 144.215 416.507 143.819 416.507 143.819C416.507 143.819 414.235 130.938 412.382 127.412C411.437 125.614 398.526 118.785 398.526 118.785L401.292 108.267Z" fill="#F77721"/>
<path d="M402.812 133.614H402.813L403.453 133.383C403.453 133.383 404.75 132.738 405.137 129.672C405.184 129.293 405.458 126.054 405.731 122.791C405.731 122.791 402.824 119.896 401.934 121.626C401.045 123.354 403.099 126.614 402.345 128.541C401.589 130.468 400.283 133.053 402.812 133.614Z" fill="#E86A13"/>
<path d="M386.698 132.738C386.698 132.738 388.221 133.943 391.247 134.004C394.861 134.077 403.816 133.082 403.816 133.082C403.816 133.082 404.214 134.194 404.198 135.368C404.198 135.368 393.26 138.127 386.923 135.771C386.923 135.771 386.106 134.233 386.698 132.738Z" fill="#461E0F"/>
<path d="M390.38 137.119C389.47 137.119 388.731 136.281 388.731 135.252C388.731 134.223 389.471 133.385 390.38 133.385C391.289 133.385 392.029 134.222 392.029 135.252C392.029 136.281 391.289 137.119 390.38 137.119ZM390.38 133.932C389.772 133.932 389.277 134.524 389.277 135.252C389.277 135.98 389.772 136.572 390.38 136.572C390.988 136.572 391.483 135.98 391.483 135.252C391.482 134.524 390.988 133.932 390.38 133.932Z" fill="#FFF5DE"/>
</svg>
